<svg xmlns="http://www.w3.org/2000/svg" xmlns:xlink="http://www.w3.org/1999/xlink" viewBox="0 0 442.7 451.74"><defs><style>.cls-1{fill:url(#New_Gradient_Swatch);}.cls-2{fill:#fef5b4;}.cls-2,.cls-4,.cls-7{fill-rule:evenodd;}.cls-3,.cls-4{fill:#f0e7a4;}.cls-5{fill:url(#linear-gradient);}.cls-6{fill:#1563a1;}.cls-7,.cls-8{fill:#013364;}.cls-9{fill:#0e538d;}.cls-10{fill:#074278;}.cls-11{fill:url(#linear-gradient-2);}.cls-12{fill:#31cdca;}.cls-13{fill:#2ea7cf;}.cls-14{fill:#318eca;}.cls-15{fill:#97d3ca;}.cls-16,.cls-17{fill:none;}.cls-17{stroke:#ccc;stroke-miterlimit:10;stroke-width:2px;}</style><linearGradient id="New_Gradient_Swatch" x1="52.99" y1="-63.09" x2="333.7" y2="387.58" gradientUnits="userSpaceOnUse"><stop offset="0" stop-color="#063569"/><stop offset="1" stop-color="#02427f" stop-opacity="0"/></linearGradient><linearGradient id="linear-gradient" x1="337.75" y1="294.36" x2="238.43" y2="275.07" gradientUnits="userSpaceOnUse"><stop offset="0" stop-color="#31cdca"/><stop offset="0.35" stop-color="#bde8cc"/><stop offset="1" stop-color="#2ea7cf"/></linearGradient><linearGradient id="linear-gradient-2" x1="83.71" y1="193.15" x2="212.92" y2="102.51" gradientUnits="userSpaceOnUse"><stop offset="0" stop-color="#0e538d"/><stop offset="0.35" stop-color="#0e538d"/><stop offset="1" stop-color="#49a5e6"/></linearGradient></defs><title>education</title><g id="Layer_2" data-name="Layer 2"><g id="Layer_1-2" data-name="Layer 1"><path class="cls-1" d="M375.76,312.55c0,.28,0,.55,0,.82a42.62,42.62,0,0,0,.76,8.87v0c.26,1.35.59,2.67,1,4,.14.47.28.93.44,1.4h0a53,53,0,0,0,2.2,5.77h5.78v10.24H325.47v13.82l-8.93-3.76-8.76,3.76V343.65H210.59a19,19,0,0,1-13.4-5.6,18.74,18.74,0,0,1-5.6-13.47v-21a19.1,19.1,0,0,1,19-19.06H195.27a19,19,0,0,1-19-19.07v-7.67c-9.66-.71-17.89-2.73-23.88-5.93a28.8,28.8,0,0,1-3.22-2c0,1.86,0,3.71,0,5.56A6.79,6.79,0,0,1,149,268.2l-.06,7.85a6.79,6.79,0,0,1,2.52,11.33,2.21,2.21,0,0,1-.52,4,10.13,10.13,0,0,1,5.6,6.58l5.17,19.1a8.08,8.08,0,0,1-7.8,10.18H139.62a8.08,8.08,0,0,1-7.8-10.18L137,298a10.13,10.13,0,0,1,5.6-6.58,2.21,2.21,0,0,1-.52-4,6.79,6.79,0,0,1,2.06-11.16l0-8.18a6.8,6.8,0,0,1,0-12.48c0-3.64,0-7.29,0-10.93a14.22,14.22,0,0,1-1.87-4.33l-5.3-21.65-2.07-8.46-.51,0L120.8,166l68.06-38.52,147.05,5.18,1.89,7.7L275,175.88,282.4,206c1.5,6.13-1.3,12.86-7.32,19.39h95.49V235.7h-5.78a51,51,0,0,0-3.52,10.87H366a39,39,0,0,0-2.39,6.53h-3.19c0,.13,0,.26,0,.39s0,.5,0,.75a42.72,42.72,0,0,0,.77,8.88v0c.26,1.34.59,2.66,1,4,.14.45.28.91.44,1.38h0a57,57,0,0,0,2.21,5.77h5.78v10.24h15.32v10.23h-5.78a54.36,54.36,0,0,0-2.32,6.19c-.11.36-.22.72-.31,1.07h0a45.31,45.31,0,0,0-1.54,8.06c0,.15,0,.3,0,.46C375.83,311.21,375.79,311.88,375.76,312.55Z"/><path class="cls-2" d="M351.07,261.54H169.73v38.67H351.07c-5.17-11.55-6.48-24.15,0-38.67Z"/><path class="cls-3" d="M347.22,274.05l-152.8,5,152.27,2A48,48,0,0,1,347.22,274.05Z"/><path class="cls-3" d="M347.31,288.13l-95.8,4.47,97.37,1.83A41.44,41.44,0,0,1,347.31,288.13Z"/><path class="cls-4" d="M351.07,261.54H171.31a18.82,18.82,0,0,0-1.58,1.23v37.44H173a4.75,4.75,0,0,1-.18-1.58v-21a8.45,8.45,0,0,1,2.63-6.21,8.76,8.76,0,0,1,6.13-2.63H348.44a46.51,46.51,0,0,1,2.63-7.26Z"/><path class="cls-5" d="M356.85,310.44H181.55a19,19,0,0,1-13.4-5.6,18.74,18.74,0,0,1-5.6-13.47v-21a19.12,19.12,0,0,1,19-19.07h175.3v10.23H181.55a8.76,8.76,0,0,0-6.13,2.63,8.45,8.45,0,0,0-2.63,6.21v21a8.45,8.45,0,0,0,2.63,6.21,8.76,8.76,0,0,0,6.13,2.63h175.3Z"/><path class="cls-2" d="M335.75,202.49H154.32v38.58H335.75c-5.17-11.54-6.48-24,0-38.58Z"/><path class="cls-3" d="M331.89,214.92l-152.79,5,152.27,2A47.89,47.89,0,0,1,331.89,214.92Z"/><path class="cls-3" d="M332,229l-95.88,4.46,97.46,1.84A39,39,0,0,1,332,229Z"/><path class="cls-4" d="M337,213.36H173.3c-.48.32-1,.64-1.51,1v34.1h3a8.64,8.64,0,0,1-.08-1.43V227.94a7.94,7.94,0,0,1,2.31-5.66,8.35,8.35,0,0,1,5.66-2.39h152a38.2,38.2,0,0,1,2.4-6.53Z"/><path class="cls-6" d="M341.53,251.31H166.23a19,19,0,0,1-19-19.07v-21a19,19,0,0,1,19-19.07h175.3v10.32H166.23A9.06,9.06,0,0,0,160,205a8.71,8.71,0,0,0-2.54,6.21v21a8.71,8.71,0,0,0,2.54,6.21,9.14,9.14,0,0,0,6.22,2.62h175.3Z"/><polygon class="cls-7" points="231.2 218.24 251.69 217.54 251.69 273.79 241.36 269.41 231.2 273.79 231.2 218.24"/><polygon class="cls-7" points="278.75 276.32 296.43 275.71 296.43 324.26 287.5 320.5 278.75 324.26 278.75 276.32"/><path class="cls-8" d="M242.75,129.43l10.61,43.35c3.87,15.81-20.76,35.6-56,45.78-2.21.64-4.45,1.24-6.74,1.8a160.73,160.73,0,0,1-16.59,3.16q-4.61.64-9,1c-17.34,1.31-32.27-.82-41.7-5.85-5.46-2.91-9.08-6.79-10.24-11.55L102.5,163.73Z"/><path class="cls-9" d="M146.65,149.25l18.4,75.24c-17.34,1.31-32.27-.82-41.7-5.85l-14.7-60.1Z"/><path class="cls-9" d="M178.54,141.44l18.87,77.12c-2.21.64-4.45,1.24-6.74,1.8a160.73,160.73,0,0,1-16.59,3.16l-18.69-76.41Z"/><polygon class="cls-10" points="180.71 179.62 33.66 174.44 31.77 166.74 306.87 99.44 308.76 107.14 180.71 179.62"/><polygon class="cls-11" points="178.82 171.92 31.77 166.74 159.82 94.26 306.87 99.44 178.82 171.92"/><path class="cls-12" d="M117.81,255.41a2.12,2.12,0,0,1-1.5-.43,3.35,3.35,0,0,1-1.19-3.32q-.15-42.54-.29-85.1a2.69,2.69,0,0,1,1.18-2.92l51.87-32.83a2.76,2.76,0,0,1,3.73.83,2.71,2.71,0,0,1-.84,3.73l-50.24,31.8q-.33,42.2-.68,84.38C119.89,253.66,118.93,255.22,117.81,255.41Z"/><path class="cls-12" d="M124.89,294.06H110.58a8.08,8.08,0,0,1-7.79-10.19l5.16-19.1a10.14,10.14,0,0,1,19.57,0l5.17,19.1A8.08,8.08,0,0,1,124.89,294.06Z"/><path class="cls-13" d="M132.69,283.87l-5.17-19.1a10.13,10.13,0,0,0-9.78-7.49c-.07,0-.07,36.78-.07,36.78h7.22A8.08,8.08,0,0,0,132.69,283.87Z"/><circle class="cls-14" cx="117.74" cy="228.58" r="6.8" transform="translate(-131.78 290.65) rotate(-76.72)"/><circle class="cls-14" cx="117.74" cy="249.27" r="6.8" transform="translate(-151.92 306.59) rotate(-76.72)"/><path class="cls-13" d="M121.3,258.3h-7.12a2.23,2.23,0,0,1,0-4.46h7.12a2.23,2.23,0,0,1,0,4.46Z"/><path class="cls-15" d="M118.33,247.75a2.65,2.65,0,1,1-2.65-2.64A2.65,2.65,0,0,1,118.33,247.75Z"/><path class="cls-15" d="M120.25,251.36a1,1,0,1,1-1-1A1,1,0,0,1,120.25,251.36Z"/><path class="cls-15" d="M118.33,227.18a2.65,2.65,0,1,1-2.65-2.65A2.65,2.65,0,0,1,118.33,227.18Z"/><circle class="cls-9" cx="169.31" cy="132.67" r="6.54"/><line class="cls-16" x1="136.85" y1="218.65" x2="134.27" y2="210.17"/><ellipse class="cls-17" cx="221.35" cy="225.87" rx="220.35" ry="224.87"/></g></g></svg>