<svg xmlns="http://www.w3.org/2000/svg" xmlns:xlink="http://www.w3.org/1999/xlink" viewBox="0 0 438.01 438.01"><defs><style>.cls-1{fill:url(#linear-gradient);}.cls-2{fill:#ffce47;}.cls-3{fill:#023d83;}.cls-4{fill:#2ab3f4;}.cls-5{opacity:0.2;}.cls-6{fill:url(#linear-gradient-2);}.cls-7{fill:#007ae2;}.cls-8{fill:#fff;}.cls-9{fill:#033361;}.cls-10{fill:#d45900;}.cls-11{fill:#f4bd18;}.cls-12{fill:#ef7f19;}.cls-13{fill:none;stroke:#ccc;stroke-miterlimit:10;stroke-width:2px;}</style><linearGradient id="linear-gradient" x1="185.02" y1="130.4" x2="343.77" y2="339.66" gradientUnits="userSpaceOnUse"><stop offset="0" stop-color="#063569"/><stop offset="1" stop-color="#02427f" stop-opacity="0"/></linearGradient><linearGradient id="linear-gradient-2" x1="187.74" y1="235.56" x2="328.11" y2="235.56" gradientUnits="userSpaceOnUse"><stop offset="0" stop-color="#007ae2"/><stop offset="1" stop-color="#023d83"/></linearGradient></defs><title>invest2-circle</title><g id="Layer_2" data-name="Layer 2"><g id="Layer_1-2" data-name="Layer 1"><path class="cls-1" d="M354.92,262.55c0,36.57-14.46,61.5-37.39,76.69a70.94,70.94,0,0,1-7.65,18.37,3.66,3.66,0,0,1-.57,1.68,43.29,43.29,0,0,1-6.64,8.17,3.74,3.74,0,0,1-6.14-1.76,3.72,3.72,0,0,0-4.94-2.48c-1.21.46-2.58,1-3.94,1.58a3.74,3.74,0,0,1-5.19-3.8,4.05,4.05,0,0,1,.07-1.19l1.33-6.26-.65.15-.62.17v0A165.63,165.63,0,0,1,244.4,358a173.56,173.56,0,0,1-29.84-2.47c-2.83-.49-5.6-1.07-8.35-1.72l0,0-.59-.15-.14,0,1.48,6.91a3.74,3.74,0,0,1-5.13,4.21c-1.36-.58-2.73-1.12-3.94-1.58A3.72,3.72,0,0,0,193,365.7a3.74,3.74,0,0,1-6.14,1.76c-.79-.76-1.54-1.56-2.27-2.37-7.62-8.13-11.51-19.17-13.29-25.85-22.92-15.19-37.39-40.12-37.39-76.69A131.67,131.67,0,0,1,152,195.39l54-47.74a100.3,100.3,0,0,1,31.15-7.34V140h14v.24a101,101,0,0,1,35.26,8.94l.7.34c5.12-12.91,22.35-51.3,47.79-57.12,0,0,.83,1,2.16,2.75a.11.11,0,0,0,0,0l.22.3c.07.1.15.2.22.32l.22.31.25.35c.08.11.15.22.23.32s.19.28.29.41l.22.34c.12.19.26.37.39.57l.26.39c.14.21.27.41.41.64s.15.23.22.36a5.19,5.19,0,0,1,.34.52l.26.41c.12.18.23.35.33.53s.18.3.27.45.24.38.35.57a4.91,4.91,0,0,1,.25.44c.14.22.27.44.41.68s.14.25.21.38c.2.34.4.71.6,1.07.08.12.15.27.23.41l.41.74c.09.16.17.33.26.51s.24.45.36.67l.29.56c.11.23.24.46.35.69l.28.57c.12.25.24.5.37.75s.17.37.26.56l.52,1.11c.09.2.18.41.28.61s.27.63.41.94l.26.62.34.8c.08.22.18.45.27.67l.31.79.28.7.3.81c.1.23.18.47.27.71s.21.61.33.92.13.41.21.62c.17.5.33,1,.5,1.51.07.24.15.48.22.73s.19.58.28.88.14.53.22.8.16.56.25.86.14.54.21.82l.23.86c.07.28.13.57.21.84s.13.61.21.91.12.55.19.82.16.83.25,1.24.16.82.23,1.23.12.64.18,1,.08.6.13.9.1.61.14.92.09.63.14.94.07.6.11.91.08.64.1,1,.06.62.1.93.05.64.08.95.05.67.07,1c0,.51.06,1,.09,1.56s0,.76,0,1.13,0,.67,0,1,0,.64,0,1,0,.69,0,1,0,.63,0,.94l0,1.05c0,.32,0,.64,0,1s-.05.7-.08,1.06,0,.65-.07,1-.07.7-.1,1.05-.1.89-.17,1.32-.13,1.09-.22,1.62l-.15,1c-.06.36-.12.72-.2,1.08s-.11.66-.19,1-.15.74-.22,1.1-.15.67-.23,1-.17.74-.26,1.12-.17.67-.26,1-.2.74-.3,1.13-.21.69-.31,1c-.2.66-.41,1.33-.64,2-.11.36-.23.72-.36,1.09s-.27.76-.41,1.13-.25.69-.39,1-.3.76-.46,1.14-.27.69-.42,1l-.5,1.16c-.15.34-.31.69-.47,1s-.37.77-.54,1.16l-.54,1.07c-.18.38-.37.75-.57,1.14-.36.67-.72,1.36-1.11,2-.21.38-.43.74-.64,1.11s-.43.74-.66,1.11-.46.76-.71,1.15-.45.72-.67,1.09l-.76,1.16-.75,1.08c-.26.39-.53.76-.8,1.15s-.54.75-.81,1.12-.55.75-.84,1.12-.67.86-1,1.3c-.46.59-.92,1.17-1.41,1.75-.18.22-.37.46-.56.68A131.14,131.14,0,0,1,354.92,262.55Z"/><path class="cls-2" d="M169.14,138.8a70.32,70.32,0,0,1,1,8.58,84.4,84.4,0,0,1,8.82,1.76,54.76,54.76,0,0,1-8.82,1.4,74.12,74.12,0,0,1-1.64,8.7,54.69,54.69,0,0,1-1-9.06s-7-.73-9-1.65c0,0,1.61-.39,8.91-1.12C167.46,147.41,168.44,141.08,169.14,138.8Z"/><path class="cls-3" d="M258.71,130.9s18.72-54.33,49.39-61.35c0,0,44.45,51.21-2.86,103.2"/><path class="cls-4" d="M310.25,72.31c-32,20.79-30.74,69-30.74,69a61.57,61.57,0,0,1,28.21,28.62C344.92,126,318.38,83.36,310.25,72.31Z"/><path class="cls-3" d="M176.46,130.9s-18.71-54.33-49.39-61.35c0,0-44.45,51.21,2.86,103.2"/><path class="cls-4" d="M124.92,72.31c32,20.79,30.75,69,30.75,69a61.56,61.56,0,0,0-28.22,28.62C90.26,126,116.79,83.36,124.92,72.31Z"/><g class="cls-5"><path d="M288.64,317.69a34.13,34.13,0,0,0,.38-3.49l-28.7,1.05L255.77,331A109.46,109.46,0,0,0,288.64,317.69Z"/></g><g class="cls-5"><path d="M174.86,315.25l-29.46-1.8s-1.9-.67-1,2.9a107.88,107.88,0,0,0,35,14.63Z"/></g><path class="cls-6" d="M328.11,239.67c0-51.17-28.3-95-68.5-113.34L187.74,332.68a173.68,173.68,0,0,0,29.85,2.47A165.45,165.45,0,0,0,257,330.68l-1.33,6.25a3.73,3.73,0,0,0,5.12,4.21c1.37-.58,2.74-1.13,3.95-1.59a3.74,3.74,0,0,1,4.94,2.48,3.74,3.74,0,0,0,6.17,1.73c8.64-8.22,12.93-20.27,14.83-27.4C313.64,301.17,328.11,276.24,328.11,239.67Z"/><path class="cls-7" d="M187.74,332.68c-3.26-.56-6.47-1.23-9.61-2l1.33,6.26a3.73,3.73,0,0,1-5.11,4.2c-1.37-.57-2.75-1.12-4-1.59a3.72,3.72,0,0,0-4.93,2.49,3.76,3.76,0,0,1-6.18,1.72c-8.64-8.22-12.93-20.28-14.83-27.4-22.92-15.19-37.38-40.12-37.38-76.69,0-67.67,49.48-122.52,110.52-122.52a100.87,100.87,0,0,1,42,9.18Z"/><path class="cls-3" d="M175.24,327.34A44.86,44.86,0,0,0,155.07,331a3.75,3.75,0,0,0-1.7,5.47,43.93,43.93,0,0,0,6.65,8.16,3.73,3.73,0,0,0,6.13-1.76h0a3.73,3.73,0,0,1,4.94-2.49c1.21.47,2.58,1,3.95,1.59a3.74,3.74,0,0,0,5.12-4.21l-1.58-7.42A3.72,3.72,0,0,0,175.24,327.34Z"/><path class="cls-4" d="M217.59,202c-91.5,0-53.26,84.74-27.56,70.18,12.81-7.25,27.56-6.76,27.56-6.76s14.75-.49,27.55,6.76C270.84,286.73,309.09,202,217.59,202Z"/><ellipse class="cls-3" cx="190.24" cy="240.24" rx="9.88" ry="14.3" transform="translate(-90.88 118.26) rotate(-28.17)"/><ellipse class="cls-3" cx="244.93" cy="240.24" rx="14.3" ry="9.88" transform="translate(-82.48 342.75) rotate(-61.83)"/><rect class="cls-8" x="210.33" y="117.15" width="14.03" height="16.51"/><path class="cls-3" d="M257.29,330.29l-1.58,7.42a3.74,3.74,0,0,0,5.12,4.21c1.37-.58,2.74-1.12,3.94-1.59a3.74,3.74,0,0,1,5,2.49h0a3.73,3.73,0,0,0,6.13,1.76,43.93,43.93,0,0,0,6.65-8.16,3.75,3.75,0,0,0-1.7-5.47,44.86,44.86,0,0,0-20.17-3.61A3.72,3.72,0,0,0,257.29,330.29Z"/><path class="cls-9" d="M214,130.6v-44c0-.59,0-1.19,0-1.78V84.7l-.42.34h7.84l-.41-.34v44c0,.59,0,1.19,0,1.79v.07l.41-.34h-7.84a.35.35,0,1,0,0,.69h7.84a.39.39,0,0,0,.42-.35v-44c0-.59,0-1.19,0-1.78V84.7a.39.39,0,0,0-.42-.34h-7.84a.38.38,0,0,0-.41.34v44c0,.59,0,1.19,0,1.79v.07C213.21,131.05,214,131.05,214,130.6Z"/><rect class="cls-10" x="214" y="85.14" width="7.17" height="17.76"/><rect class="cls-11" x="214" y="120.11" width="7.17" height="10.83"/><rect class="cls-12" x="214" y="102.89" width="7.17" height="17.76"/><path class="cls-11" d="M229.59,80a69.67,69.67,0,0,1,1,8.58,84.4,84.4,0,0,1,8.82,1.76,54.76,54.76,0,0,1-8.82,1.4,72.63,72.63,0,0,1-1.65,8.7,54.85,54.85,0,0,1-1-9.06s-7-.73-9-1.65c0,0,1.61-.39,8.91-1.12C227.92,88.57,228.89,82.24,229.59,80Z"/><circle class="cls-13" cx="219.01" cy="219.01" r="218.01"/></g></g></svg>