<svg xmlns="http://www.w3.org/2000/svg" viewBox="0 0 466.5 466.5"><defs><style>.cls-1{fill:#e6b07c;}.cls-11,.cls-2{fill:#03254c;}.cls-3{fill:#323031;}.cls-4{fill:#ffc78c;}.cls-5{fill:#023d83;}.cls-6{fill:#30302f;}.cls-21,.cls-7{fill:#1d1d1b;}.cls-8{fill:#187bcd;}.cls-9{fill:#3c3c3b;}.cls-10{fill:#ededed;}.cls-11{opacity:0.3;}.cls-12{fill:#b2b2b2;}.cls-13{fill:#ffc994;}.cls-14{fill:#2b2b2b;}.cls-15{fill:#2d2d2c;}.cls-16{fill:#dedede;}.cls-17{fill:#634e42;}.cls-18{fill:#2a9df4;}.cls-19{fill:#dadada;}.cls-20{fill:#e6e6e6;}.cls-21{opacity:0.1;}.cls-22{fill:#f2bc88;}.cls-23{fill:none;stroke:#ccc;stroke-miterlimit:10;stroke-width:2px;}</style></defs><title>retirement-circle</title><g id="Layer_2" data-name="Layer 2"><g id="Layer_1-2" data-name="Layer 1"><path class="cls-1" d="M219.65,232.66l-3.88-5.95c-2.79,1.75-5.73,3.52-8.53,5.41l4.37,5.95c-.82,3.08,5.25,12.43,5.25,12.43A29,29,0,0,0,229.27,245l-2.68-5.63S221.68,232.2,219.65,232.66Z"/><path class="cls-2" d="M202.84,202.55l-.17.07a9.2,9.2,0,0,1-12.08-4.84l-13.46-31.49A9.2,9.2,0,0,1,182,154.22l.17-.07A9.19,9.19,0,0,1,194.22,159l13.46,31.48A9.2,9.2,0,0,1,202.84,202.55Z"/><path class="cls-2" d="M217.82,211.85l2.79-12.64L185.9,188.27a9.21,9.21,0,0,0-11.24,6.55l0,.18a9.2,9.2,0,0,0,6.55,11.24Z"/><path class="cls-1" d="M340,212.73l2.4-2.15v0c-.25-.17-5.57-4.3-6-4.6a7.33,7.33,0,0,0-5.87-.78l-1.13.4-5.49-1.41c-2.19,4.49-4.38,9-6.79,13.35,2.43,1.32,5.26,2.72,5.52,3l-.14,1.28,5.24,5.44a1.68,1.68,0,0,0,.42-1.1l.17.49a2.31,2.31,0,0,0,1.15,1.25,2.16,2.16,0,0,0,1.71.07l.91-.32a2.41,2.41,0,0,0,1.58-2.32l.46,1.25a2.38,2.38,0,0,0,.24.45,34.15,34.15,0,0,0,4.55-3.3s0,0,.07-.06c1.49-1.21,2.91-2.56,4.38-4,.53-.51,1.06-1.07,1.62-1.62Z"/><path class="cls-3" d="M320.57,234.48a3.74,3.74,0,0,0,3.74-3.74,10.07,10.07,0,0,1,17.88-6.06c1.89,2.48,2,5.26,2.05,9.22q0,10.95,0,21.91V395h7.48V255.82c0-7.31,0-14.62,0-21.93,0-3.84,0-9.09-3.59-13.76a17.55,17.55,0,0,0-31.3,10.61A3.74,3.74,0,0,0,320.57,234.48Z"/><path class="cls-4" d="M337.21,219.09a2.55,2.55,0,0,1,1.53-3.27l.44-.16a2.49,2.49,0,0,1,1.95.08,2.56,2.56,0,0,1,1.32,1.44l1.76,4.85a2.37,2.37,0,0,1-1.42,3.05l-.91.33a2.22,2.22,0,0,1-2.85-1.33Z"/><path class="cls-4" d="M339.22,226.27a2.41,2.41,0,0,1-1.36,1.25l-.9.32a2.23,2.23,0,0,1-2.61-.83,2.38,2.38,0,0,1-.24-.45l-.46-1.25-1.9-5a2.46,2.46,0,0,1,.07-2,2.44,2.44,0,0,1,1.44-1.34l.43-.17a2.55,2.55,0,0,1,3.25,1.49l.26.7,0,.09,1.73,4.51.29.79a.48.48,0,0,1,.05.17A2.27,2.27,0,0,1,339.22,226.27Z"/><path class="cls-4" d="M333.65,225.31a2.41,2.41,0,0,1-1.58,2.32l-.91.32a2.16,2.16,0,0,1-1.71-.07,2.31,2.31,0,0,1-1.15-1.25l-.17-.49-1.63-4.51a1.31,1.31,0,0,1-.09-.34,2.53,2.53,0,0,1,1.6-2.94l.44-.15a2.52,2.52,0,0,1,2,.09,2.45,2.45,0,0,1,1.17,1.12,1.82,1.82,0,0,1,.15.32l1.77,4.83A3.69,3.69,0,0,1,333.65,225.31Z"/><path class="cls-4" d="M328.13,226.14a1.68,1.68,0,0,1-.42,1.1,1.77,1.77,0,0,1-.9.64l-.74.28a1.79,1.79,0,0,1-2.32-1l-1.4-3.83a1.86,1.86,0,0,1,.12-1.55,2.23,2.23,0,0,1,1.19-1l.37-.15a2.09,2.09,0,0,1,2.38.64,2.39,2.39,0,0,1,.28.49L328,225.5A1.78,1.78,0,0,1,328.13,226.14Z"/><path class="cls-4" d="M343.06,216l-.16-4.23a1.75,1.75,0,0,0-.51-1.19h0c-.25-.19-5.57-4.31-6-4.6a7.33,7.33,0,0,0-5.87-.79l-1.13.4-5.5-1.41c-1.2,2.48-2.41,5-3.65,7.43l3.72,1.14c4.84,6.38,12.19.69,12.19.69l.72.54a1.48,1.48,0,0,1,.57,1.1l.06,2.22a3.43,3.43,0,0,0,3.61,3.29l.53,0a1.63,1.63,0,0,0,1.55-1.7Z"/><path class="cls-5" d="M289,197.66l-.22.07a11.35,11.35,0,0,1-14.45-7l-13.86-40a11.36,11.36,0,0,1,7-14.46l.22-.07a11.36,11.36,0,0,1,14.46,7l13.85,40A11.36,11.36,0,0,1,289,197.66Z"/><path class="cls-5" d="M325.8,202.35l-34.42-23.73a11.37,11.37,0,0,0-15.6,3.85l-.12.19a11.37,11.37,0,0,0,3.85,15.6l36.18,21.89C316.18,220.44,325.27,203.48,325.8,202.35Z"/><path class="cls-6" d="M269.42,394.42c-3.54.19-7.31.41-10.05-1v-2.32L270,389.74Z"/><path class="cls-6" d="M259.37,391.06c18.84,5,32.84,5.61,40.64,2.73l.25-3-40.58-3.41Z"/><path class="cls-7" d="M259.59,388.55c6,3.65,37.33,5.8,40.67,2.28,0-6.67-13.71-3.4-22.71-11.14C265.06,369,259.85,385.28,259.59,388.55Z"/><path class="cls-2" d="M276.29,334.2l-.27,0a13.23,13.23,0,0,1-14.71-11.56l-6.81-80.22L281,239.27l6.81,80.22A13.23,13.23,0,0,1,276.29,334.2Z"/><path class="cls-2" d="M275.51,309.86l.26,0a13.22,13.22,0,0,1,12.09,14.27l-4.73,57-26.62,7L261.23,322A13.24,13.24,0,0,1,275.51,309.86Z"/><path class="cls-8" d="M285.63,216.13c-.05,1-.09,2-.15,3-13.52,5.09-26.8,8.14-39.71,8.64A89.67,89.67,0,0,1,216,224.18l-.13-3.67-1.24-32.09L213,146.58c2.33-17.58,19.48-38.37,39.86-38.37h.72c15.76,0,28.38,14.32,27.75,31.54C280.25,169,287,183.55,285.63,216.13Z"/><path class="cls-9" d="M237,389.75l-.17,1.48-.27,2.22-.1,1-1.81.08c-3,.11-6,.09-8.25-1.13v-2.33l5.61-.69h0l2.09-.27Z"/><path class="cls-9" d="M267.3,390.83l-.26,3c-6.31,2.33-16.72,2.38-30.48-.34l-2.09-.46c-2.59-.54-5.26-1.2-8.07-1.94l.22-2.5c0-.09,0-.15,0-.26l.06-.85h.09l7.12.61Z"/><path class="cls-7" d="M267.3,390.83c-2.39,2.51-19,2.14-30.47.4-.92-.13-1.81-.29-2.64-.44s-1.48-.28-2.15-.43h0a20.09,20.09,0,0,1-5.39-1.81c0-.09,0-.15,0-.26s.09-.52.15-.85c0,0,0-.09,0-.13.61-2.77,2.59-7.9,6.21-10.15,2.81-1.74,6.62-1.72,11.53,2.53a21.69,21.69,0,0,0,3.05,2.15C256.37,386.85,267.3,384.87,267.3,390.83Z"/><path class="cls-5" d="M249.8,259.75a75.35,75.35,0,0,1-13.06-.37c-.83-.06-1.68-.17-2.53-.28a18.3,18.3,0,0,1-11.82-6.29c-9.57-11.12-7-32.65-7-32.65l.52.35c7.8,5.55,18.92,7,30.43,6.2a114.77,114.77,0,0,0,39.34-10.58S291.22,257.16,249.8,259.75Z"/><path class="cls-5" d="M254.89,322.25a0,0,0,0,1,0,0,13.23,13.23,0,0,1-11.58,11.91l-.26,0a13.27,13.27,0,0,1-14.71-11.54l-.07-.74v0l-5.88-69.11-.87-10.36L241,240.12l7.08-.85,1.74,20.48,5.07,59.73A11.68,11.68,0,0,1,254.89,322.25Z"/><path class="cls-5" d="M254.89,324.16l-4.72,57-2.55.67-14,3.68-6.84,1.79-3.28.87,4.72-66.24v0a13.2,13.2,0,0,1,11.69-12,12.23,12.23,0,0,1,2.57,0l.28,0a13.21,13.21,0,0,1,12.08,12.37,0,0,0,0,1,0,0A9.74,9.74,0,0,1,254.89,324.16Z"/><polygon class="cls-5" points="274.31 161.74 243.68 119.79 271.22 121.08 274.31 161.74"/><path class="cls-4" d="M279.27,91.83l-.17-.07a3.6,3.6,0,0,0-3.89,1L274.06,107a2.55,2.55,0,0,0,.39.24c2.41,1.24,5.45-1.22,6.78-5.49S281.68,93.07,279.27,91.83Z"/><path class="cls-10" d="M279,96.81c.33-.88,2-3.62,2.1-4.78a24,24,0,0,0,.05-5.7c-1.25-7.17-4.72-8.09-6.24-7.85.4,1.41,3.16,3.79,2.44,5A3.56,3.56,0,0,1,275.58,85a1.83,1.83,0,0,0-.85,2.1,52.29,52.29,0,0,1,.45,18.38c.8.87,2.12.32,2.72-.78a8.4,8.4,0,0,0,.68-3.88A11.31,11.31,0,0,1,279,96.81Z"/><path class="cls-4" d="M276.72,103a20.3,20.3,0,0,1,1-6,24.94,24.94,0,0,0,1.18-7.41c0-11.94-9.49-18.54-21.21-18.54s-21.2,6.6-21.2,18.54a25.85,25.85,0,0,0,2.19,10.12c0,.27-.07.54-.1.8-.44,5.58,2.33,15.16,5.7,19.72s5.31,2.28,10.22,5.22c3.46,2.06,9.88,1.89,12.36-.69s4.6-2.2,6.21-4.87C275.55,115.69,276.72,110.06,276.72,103Z"/><path class="cls-10" d="M238,96.81c-.43-.88-2.58-3.62-2.71-4.78a56.08,56.08,0,0,1-.07-5.7c0-6.67,2.26-7.37,4.24-7.14a4.37,4.37,0,0,0,3,5.76,1.68,1.68,0,0,1,1.09,2.1,41,41,0,0,0-.58,18.38c-1,.87-2.73.32-3.5-.78a6.69,6.69,0,0,1-.88-3.88A9.11,9.11,0,0,0,238,96.81Z"/><path class="cls-4" d="M233.55,92.3l.19-.07a4.53,4.53,0,0,1,4.4,1.06l1.6,14.38a3.62,3.62,0,0,1-.43.24c-2.7,1.19-6.17-1.34-7.76-5.65S230.86,93.49,233.55,92.3Z"/><path class="cls-11" d="M246.86,225.56c-.2.37-.39.76-.57,1.15s-.34.67-.52,1A94.78,94.78,0,0,0,241,240.12a121,121,0,0,0-4.24,19.26c-2.27,16.52-1.53,34.5,3.22,50.52a83.24,83.24,0,0,0,3.18,9.08c-2.7,3.27-4.94,8.16-6.64,14.35-3.07,11.18-4.38,26.53-3.46,43.83.15,2.75.35,5.53.63,8.36,0,.83.13,1.68.24,2.53,0,.67.13,1.35.22,2,0,.22,0,.46.06.7.09.72.18,1.46.28,2.2.05.5.11,1,.18,1.52-3,.11-6,.09-8.25-1.13v-2.33l.22-2.5c0-.09,0-.15,0-.26l.06-.85h.09s0-.09,0-.13l-3.28.87,4.72-66.24v0l-5.88-69.11c-9.57-11.12-7-32.65-7-32.65l.52.35-1.24-32.09,18.55-41.7C231.8,175.25,234.15,203.88,246.86,225.56Z"/><path class="cls-12" d="M259.12,390.63,238,262.31a16.34,16.34,0,0,0-16.24-13.67H214.4a16.34,16.34,0,0,0-16.24,13.67L177.05,390.63l-7.25-1.17,21.11-128.32a23.64,23.64,0,0,1,23.49-19.77h7.37a23.64,23.64,0,0,1,23.49,19.77l21.11,128.32Z"/><path class="cls-1" d="M220.79,224.49l0,0a2.53,2.53,0,0,1,3.58,1A79.05,79.05,0,0,0,234.62,239a2.7,2.7,0,0,1-.06,3.7l0,0a2.51,2.51,0,0,1-3.68-.08,84.4,84.4,0,0,1-10.8-14.14A3,3,0,0,1,220.79,224.49Z"/><path class="cls-4" d="M223.7,229.65h0a2.4,2.4,0,0,1,2.94,1.7l5,18.76A2.39,2.39,0,0,1,230,253h0a2.39,2.39,0,0,1-2.93-1.7l-5-18.77A2.39,2.39,0,0,1,223.7,229.65Z"/><path class="cls-4" d="M219.54,233l.05,0a2.48,2.48,0,0,1,3.08,1.67l5,18.76a2.48,2.48,0,0,1-1.84,3h-.05a2.48,2.48,0,0,1-3.08-1.67l-5-18.76A2.47,2.47,0,0,1,219.54,233Z"/><path class="cls-4" d="M214.23,232.51l.05,0a2.43,2.43,0,0,1,3,1.7l5,18.76a2.43,2.43,0,0,1-1.75,3h-.05a2.43,2.43,0,0,1-3-1.69l-5-18.77A2.41,2.41,0,0,1,214.23,232.51Z"/><path class="cls-4" d="M210.44,235.46h0a2.14,2.14,0,0,1,2.61,1.51l3.22,12.53a2.13,2.13,0,0,1-1.51,2.61h0a2.14,2.14,0,0,1-2.61-1.52l-3.23-12.53A2.13,2.13,0,0,1,210.44,235.46Z"/><rect class="cls-13" x="208.44" y="216.59" width="12.37" height="12.84" transform="translate(-50.01 62.49) rotate(-14.86)"/><path class="cls-4" d="M212.43,243.18l0,0a2.11,2.11,0,0,0,1.51-2.6l.21.75a2.39,2.39,0,0,0,2.93,1.71l0,0a2.39,2.39,0,0,0,1.7-2.93l.19.7a2.39,2.39,0,0,0,2.93,1.7h0a2.39,2.39,0,0,0,1.7-2.93,2.4,2.4,0,0,0,2.94,1.7h0a2.41,2.41,0,0,0,1.71-2.94l-1.26-4.76-.23-.84-1.25-4.74a7.06,7.06,0,0,0-8.64-5l-4.57,1.21a7.06,7.06,0,0,0-5,8.64l1.25,4.73.23.85.87,3.3A2.14,2.14,0,0,0,212.43,243.18Z"/><rect class="cls-5" x="182.82" y="150.3" width="65.02" height="22.95" rx="11.36" transform="translate(-25.35 282.65) rotate(-63.58)"/><path class="cls-5" d="M204.85,230l19.36-7-7.87-43.26a11.36,11.36,0,0,0-13.32-9l-.22,0a11.36,11.36,0,0,0-9,13.32Z"/><rect class="cls-12" x="185.05" y="315.75" width="66.99" height="7.26"/><path class="cls-14" d="M179.89,394.89H167.27l1.45-6.74a3,3,0,0,1,2.92-2.34h4.55a3,3,0,0,1,3,2.62Z"/><path class="cls-14" d="M256.44,394.89h12.61l-1.45-6.74a3,3,0,0,0-2.91-2.34h-4.56a3,3,0,0,0-3,2.62Z"/><path class="cls-4" d="M222.63,199.64v0a2,2,0,0,0-2.24-2.1l-4.92.86c-4.42.48-3.44,3.38.43,3.3l4.79-.27C221.94,201.37,222.63,200.89,222.63,199.64Z"/><path class="cls-13" d="M222.75,207.07v0a2.12,2.12,0,0,0-2.08-2.43l-5.19.34c-4.62,0-3.93,3.11.08,3.46l5,.26C221.84,208.79,222.61,208.36,222.75,207.07Z"/><path class="cls-4" d="M223.23,203.82v0a2.12,2.12,0,0,0-2.09-2.42l-5.19.35c-4.62,0-3.93,3.13.09,3.47l5,.24C222.33,205.54,223.1,205.11,223.23,203.82Z"/><path class="cls-4" d="M221.56,210.29v0a1.8,1.8,0,0,0-1.77-2.06l-4.43.3c-3.94,0-3.35,2.66.08,2.95l4.25.21C220.79,211.76,221.45,211.4,221.56,210.29Z"/><rect class="cls-12" x="216.84" y="278.04" width="29.98" height="7.34"/><rect class="cls-12" x="228.93" y="355.13" width="30.43" height="7.34"/><path class="cls-15" d="M179.49,394.47c-3.74.2-7.71.43-10.59-1.09v-2.45l11.17-1.39Z"/><path class="cls-15" d="M168.9,390.93c19.85,5.28,26.29,5.74,34.51,2.71l.27-3.11-34.46-3.42Z"/><path class="cls-3" d="M169.12,388.28c6.27,3.86,31,6,34.55,2.24,0-3.55-8.28-3.37-17.77-11.53C172.74,367.66,170.41,377.75,169.12,388.28Z"/><path class="cls-1" d="M192.81,323.19,187,370.14l-.29,2.34-.81,6.5c-4.78,2.8-11.39,2.15-14.47-1l0,0,.14-7.24,0-2.43.85-46.27c3.88.49,5.52.87,9.38,1.16A47.52,47.52,0,0,0,192.81,323.19Z"/><path class="cls-8" d="M171.58,369.27l-.16,8.7c3.06,3.17,9.72,3.8,14.48,1l1-8.38A29.57,29.57,0,0,1,171.58,369.27Z"/><path class="cls-16" d="M187,370.14l-.29,2.34a27.83,27.83,0,0,1-4.28.31,29.62,29.62,0,0,1-10.88-2.06l0-2.43A26.86,26.86,0,0,0,187,370.14Z"/><path class="cls-9" d="M150.89,394.47c-3.74.2-7.71.43-10.6-1.09v-2.45l11.18-1.39Z"/><path class="cls-9" d="M140.29,390.93c19.86,5.28,26.3,5.74,34.52,2.71l.26-3.11-34.45-3.42Z"/><path class="cls-3" d="M140.52,388.28c6.27,3.86,31,6,34.55,2.24,0-3.55-8.28-3.37-17.77-11.53C144.14,367.66,141.81,377.75,140.52,388.28Z"/><path class="cls-1" d="M164.21,323.19l-5.81,46.95-.29,2.34-.81,6.5c-4.78,2.8-11.39,2.15-14.47-1l0,0,.13-7.24.05-2.43.85-46.27c3.88.49,5.52.87,9.38,1.16A47.52,47.52,0,0,0,164.21,323.19Z"/><path class="cls-8" d="M143,369.27l-.16,8.7c3.06,3.17,9.71,3.8,14.48,1l1-8.38A29.57,29.57,0,0,1,143,369.27Z"/><path class="cls-10" d="M158.4,370.14l-.29,2.34a27.87,27.87,0,0,1-4.29.31,29.7,29.7,0,0,1-10.88-2.06l.05-2.43A26.86,26.86,0,0,0,158.4,370.14Z"/><path class="cls-17" d="M206.09,248.36c-29.28,11.43-58.56,6.63-81.88-4.12L136,182.67c2.46-21.38,18.61-36.43,34.16-36.43h.55c12,0,16.43,5.12,22.86,15.72C200.72,173.68,193.6,212.93,206.09,248.36Z"/><path class="cls-18" d="M114.77,353.57a.42.42,0,0,0,.15,0,5.69,5.69,0,0,0,.65.24c2,.7,4,1.35,6,2,2.68.83,5.33,1.59,8,2.26,4.54,1.2,9.07,2.18,13.56,2.92,2.33.41,4.63.74,6.92,1a134.1,134.1,0,0,0,18.81,1c2.19,0,4.39-.13,6.59-.31s4.38-.37,6.55-.65a120,120,0,0,0,17.48-3.51c2.46-.67,4.9-1.43,7.32-2.26s4.85-1.79,7.24-2.79c1.42-.58,2.83-1.22,4.25-1.87.37-.15.72-.3,1.07-.48L199.75,244l-16.2.48-22.31.67-32.54,1,0,.11L115,352.11Z"/><path class="cls-18" d="M167.7,249.18c9.38-.37,19.68-1.94,28.45-5.64,2.24-.95,4.39-2,6.52-3.11-8.82-33.17-3.35-67.62-9.78-78.47-6.28-10.6-10.58-15.72-22.31-15.72h-.53c-15.16,0-30.91,15-33.31,36.43l-10.23,54.61C138.41,244.9,154.26,249.72,167.7,249.18Z"/><path class="cls-2" d="M185.87,157.78a148.16,148.16,0,0,1,2.35,31.75c-.58,21.71,1.24,42.09,8.39,62a95.56,95.56,0,0,0,9.48-3.14c-12.49-35.43-5.37-74.68-12.49-86.4-3.66-6-6.68-10.26-10.8-12.81A29.85,29.85,0,0,1,185.87,157.78Z"/><path class="cls-2" d="M124.21,244.25c1.46.68,3,1.33,4.47,1.94a115.43,115.43,0,0,0,27.88,7.71c1.85.24,3.7.45,5.57.63-.15-1.13-.3-2.29-.41-3.42-.22-2-.37-4-.48-6-.72-13.36.68-27.08,1.68-40.31.17-2.16.32-4.29.45-6.42.68-10.8,4-39.84-7.88-47.74-9.81,6-17.78,17.53-19.46,32l-6.94,36.16Z"/><path class="cls-19" d="M169.18,120.56C162,122,155.27,118.13,154.09,112s3.64-12.17,10.79-13.57,13.91,2.43,15.1,8.53S176.33,119.16,169.18,120.56Z"/><path class="cls-4" d="M192.69,130.13l-.13-.06a2.5,2.5,0,0,0-3,.8l-.63,12.72a3.55,3.55,0,0,0,.31.23c1.91,1.14,4.25-1,5.21-4.77S194.61,131.28,192.69,130.13Z"/><path class="cls-4" d="M192.3,130.12a24.56,24.56,0,0,1-1.15,7.41,1.94,1.94,0,0,1-.05.2c-.82,3.33-1.3,11.6-3.31,14.91-1.76,2.91-6.21,4.55-8.93,6.45-3.91,2.71-8.27,1.79-12.49-.28-4.49-2.22-7-2.6-9.7-6.67a25.68,25.68,0,0,1-3.12-7.89c-.17-.65-.32-1.29-.47-1.94-.3-1.27-.55-2.51-.82-3.71a23,23,0,0,1-1.68-8.67c0-12.25,9.52-22.2,21.28-22.2S192.3,117.86,192.3,130.12Z"/><path class="cls-20" d="M192.26,131.36c3.24-16.68-9.83-28.62-20.85-24C170,120.75,186.09,130.86,192.26,131.36Z"/><path class="cls-10" d="M152.81,131.07l-3.7.34c-4-16.67,9.78-28.6,26.43-25C176.78,119.55,163.09,134.25,152.81,131.07Z"/><path class="cls-4" d="M148.71,130.18a.85.85,0,0,1,.17-.06,4,4,0,0,1,3.93.95l1.44,12.86a2.93,2.93,0,0,1-.39.21c-2.41,1.07-5.52-1.2-6.94-5S146.3,131.24,148.71,130.18Z"/><path class="cls-21" d="M148,293.58,143.08,361l-.14,1.82-2.24-.2c-3.54-.68-7.27-1.55-11.42-2.61l.25-1.93c-2.65-.67-5.29-1.43-8-2.26l15.16-59.56.38-.09Z"/><path class="cls-21" d="M218.25,351.64c-1.41.65-2.83,1.27-4.24,1.86-2.4,1-4.82,1.93-7.25,2.78L197,289.52l.06.23Z"/><path class="cls-21" d="M199.45,358.55a120.79,120.79,0,0,1-17.5,3.52q-3.25.4-6.55.65c-2.19.15-4.39.24-6.59.29l.09,1.75a131,131,0,0,1-19.4-.74l.51-2,15.1-59.29,1.23,5.83v.07l.07.27,9,51.93,4.46-33.47,3-22.38,8.09,3.92Z"/><path class="cls-18" d="M168.9,364.76a131,131,0,0,1-19.4-.74c-2.88-.36-5.77-.81-8.8-1.41-3.54-.68-7.27-1.55-11.42-2.61l.25-1.93,7.58-61.91,1.12-9.06,27.35,4.49.76,17v.07l2.47,54.4Z"/><path class="cls-18" d="M214.73,354.29c-1.44.74-2.9,1.44-4.42,2.09h0A78,78,0,0,1,200,360a84.44,84.44,0,0,1-17.92,2.85l-.16-2.7-2.13-34.72-2.08-34.1,17.56-10.2,1.71,6.48.06.22L214,351.63Z"/><path class="cls-11" d="M114.77,358.79c.26-1.63.52-3.28.8-4.94,6.4-38.74,16.74-84.39,35.64-95.47a31.93,31.93,0,0,1,10.51-7.27c5.64-2.46,12.41-3.94,21.83-6.68,1.31-.37,2.68-.79,4.09-1.22-10.68-12.34-19-25.14-24.72-38.42a114.45,114.45,0,0,1-8.67-31.56l-25.16,45.6-4.88,25.42c1.46.68,3,1.33,4.47,1.94L115,352.11l0,1.5Z"/><path class="cls-22" d="M177.7,237.63l0,0c.67-1.18,3.79-.71,5,.06a58.64,58.64,0,0,0,12.63,6.16c1.24.46,2.46.9,2.27,2.22-.11.81-1.61,2.06-4.06,1.43a51.22,51.22,0,0,1-14.75-6.17A2.83,2.83,0,0,1,177.7,237.63Z"/><rect class="cls-19" x="157.19" y="315.75" width="66.99" height="7.26"/><path class="cls-10" d="M231.26,390.63,210.15,262.31a16.34,16.34,0,0,0-16.24-13.67h-7.37a16.34,16.34,0,0,0-16.24,13.67L149.19,390.63l-7.25-1.17,21.11-128.32a23.64,23.64,0,0,1,23.49-19.77h7.37a23.64,23.64,0,0,1,23.49,19.77l21.11,128.32Z"/><path class="cls-9" d="M152,394.89H139.41l1.45-6.74a3,3,0,0,1,2.91-2.34h4.56a3,3,0,0,1,3,2.62Z"/><path class="cls-9" d="M228.57,394.89h12.62l-1.45-6.74a3,3,0,0,0-2.91-2.34h-4.56a3,3,0,0,0-3,2.62Z"/><path class="cls-1" d="M182.5,239.68l0,0a2.24,2.24,0,0,1,3.13.46l6,9.42c2.91,4.12-.23,6.16-3,2.24l-6.82-8.8A2.48,2.48,0,0,1,182.5,239.68Z"/><path class="cls-1" d="M179.44,244.12l0,0a2.3,2.3,0,0,1,3.26.07l7.15,8.94c2.6,3.1-.42,5.71-2.72,3l-8-8.72A2.31,2.31,0,0,1,179.44,244.12Z"/><path class="cls-1" d="M175.13,246.24l0,0a2.25,2.25,0,0,1,3.19.14l7.77,8.6a2.1,2.1,0,0,1,.13,3.05,2,2,0,0,1-2.82-.43l-8.51-8.14A2.25,2.25,0,0,1,175.13,246.24Z"/><path class="cls-1" d="M173.24,250.29l0,0a2,2,0,0,1,2.8.15l5.62,5.42c.74.81,1.6,2.39.78,3.12,0,0-1.45,1.26-3.1-.52l-5.59-4.95C173,252.68,172.42,251,173.24,250.29Z"/><path class="cls-4" d="M178.34,253c2.32,2.34,4.93-.18,3.85-2.48a2.21,2.21,0,0,0,3.61-2.45c1.79,1.88,4.85-.77,3.45-2.8l-3-3.7-.54-.6-1.43-2c-2.43-2.7-8.21-4.3-10.91-1.87L170.13,240c-2.7,2.43-1.12,8.46,1.31,11.16l5,4.83C177.21,256.85,180.35,255.54,178.34,253Z"/><path class="cls-2" d="M147.66,216.07h-.19a9.19,9.19,0,0,1-9.05-9.34l.56-34.24a9.2,9.2,0,0,1,9.35-9h.18a9.19,9.19,0,0,1,9.05,9.34L157,207A9.19,9.19,0,0,1,147.66,216.07Z"/><path class="cls-2" d="M168.08,244.52l9.81-8.57L155,202.58a9.2,9.2,0,0,0-12.86-1.93l-.15.11a9.19,9.19,0,0,0-1.93,12.86Z"/><path class="cls-1" d="M219.65,232.66l-3.88-5.95c-2.79,1.75-5.73,3.52-8.53,5.41l4.37,5.95c-.82,3.08,5.25,12.43,5.25,12.43A29,29,0,0,0,229.27,245l-2.68-5.63S221.68,232.2,219.65,232.66Z"/><path class="cls-2" d="M202.84,202.55l-.17.07a9.2,9.2,0,0,1-12.08-4.84l-13.46-31.49A9.2,9.2,0,0,1,182,154.22l.17-.07A9.19,9.19,0,0,1,194.22,159l13.46,31.48A9.2,9.2,0,0,1,202.84,202.55Z"/><path class="cls-2" d="M217.82,211.85l2.79-12.64L185.9,188.27a9.21,9.21,0,0,0-11.24,6.55l0,.18a9.2,9.2,0,0,0,6.55,11.24Z"/><path class="cls-1" d="M340,212.73l2.4-2.15v0c-.25-.17-5.57-4.3-6-4.6a7.33,7.33,0,0,0-5.87-.78l-1.13.4-5.49-1.41c-2.19,4.49-4.38,9-6.79,13.35,2.43,1.32,5.26,2.72,5.52,3l-.14,1.28,5.24,5.44a1.68,1.68,0,0,0,.42-1.1l.17.49a2.31,2.31,0,0,0,1.15,1.25,2.16,2.16,0,0,0,1.71.07l.91-.32a2.41,2.41,0,0,0,1.58-2.32l.46,1.25a2.38,2.38,0,0,0,.24.45,34.15,34.15,0,0,0,4.55-3.3s0,0,.07-.06c1.49-1.21,2.91-2.56,4.38-4,.53-.51,1.06-1.07,1.62-1.62Z"/><path class="cls-3" d="M320.57,234.48a3.74,3.74,0,0,0,3.74-3.74,10.07,10.07,0,0,1,17.88-6.06c1.89,2.48,2,5.26,2.05,9.22q0,10.95,0,21.91V395h7.48V255.82c0-7.31,0-14.62,0-21.93,0-3.84,0-9.09-3.59-13.76a17.55,17.55,0,0,0-31.3,10.61A3.74,3.74,0,0,0,320.57,234.48Z"/><path class="cls-4" d="M337.21,219.09a2.55,2.55,0,0,1,1.53-3.27l.44-.16a2.49,2.49,0,0,1,1.95.08,2.56,2.56,0,0,1,1.32,1.44l1.76,4.85a2.37,2.37,0,0,1-1.42,3.05l-.91.33a2.22,2.22,0,0,1-2.85-1.33Z"/><path class="cls-4" d="M339.22,226.27a2.41,2.41,0,0,1-1.36,1.25l-.9.32a2.23,2.23,0,0,1-2.61-.83,2.38,2.38,0,0,1-.24-.45l-.46-1.25-1.9-5a2.46,2.46,0,0,1,.07-2,2.44,2.44,0,0,1,1.44-1.34l.43-.17a2.55,2.55,0,0,1,3.25,1.49l.26.7,0,.09,1.73,4.51.29.79a.48.48,0,0,1,.05.17A2.27,2.27,0,0,1,339.22,226.27Z"/><path class="cls-4" d="M333.65,225.31a2.41,2.41,0,0,1-1.58,2.32l-.91.32a2.16,2.16,0,0,1-1.71-.07,2.31,2.31,0,0,1-1.15-1.25l-.17-.49-1.63-4.51a1.31,1.31,0,0,1-.09-.34,2.53,2.53,0,0,1,1.6-2.94l.44-.15a2.52,2.52,0,0,1,2,.09,2.45,2.45,0,0,1,1.17,1.12,1.82,1.82,0,0,1,.15.32l1.77,4.83A3.69,3.69,0,0,1,333.65,225.31Z"/><path class="cls-4" d="M328.13,226.14a1.68,1.68,0,0,1-.42,1.1,1.77,1.77,0,0,1-.9.64l-.74.28a1.79,1.79,0,0,1-2.32-1l-1.4-3.83a1.86,1.86,0,0,1,.12-1.55,2.23,2.23,0,0,1,1.19-1l.37-.15a2.09,2.09,0,0,1,2.38.64,2.39,2.39,0,0,1,.28.49L328,225.5A1.78,1.78,0,0,1,328.13,226.14Z"/><path class="cls-4" d="M343.06,216l-.16-4.23a1.75,1.75,0,0,0-.51-1.19h0c-.25-.19-5.57-4.31-6-4.6a7.33,7.33,0,0,0-5.87-.79l-1.13.4-5.5-1.41c-1.2,2.48-2.41,5-3.65,7.43l3.72,1.14c4.84,6.38,12.19.69,12.19.69l.72.54a1.48,1.48,0,0,1,.57,1.1l.06,2.22a3.43,3.43,0,0,0,3.61,3.29l.53,0a1.63,1.63,0,0,0,1.55-1.7Z"/><path class="cls-5" d="M289,197.66l-.22.07a11.35,11.35,0,0,1-14.45-7l-13.86-40a11.36,11.36,0,0,1,7-14.46l.22-.07a11.36,11.36,0,0,1,14.46,7l13.85,40A11.36,11.36,0,0,1,289,197.66Z"/><path class="cls-5" d="M325.8,202.35l-34.42-23.73a11.37,11.37,0,0,0-15.6,3.85l-.12.19a11.37,11.37,0,0,0,3.85,15.6l36.18,21.89C316.18,220.44,325.27,203.48,325.8,202.35Z"/><path class="cls-6" d="M269.42,394.42c-3.54.19-7.31.41-10.05-1v-2.32L270,389.74Z"/><path class="cls-6" d="M259.37,391.06c18.84,5,32.84,5.61,40.64,2.73l.25-3-40.58-3.41Z"/><path class="cls-7" d="M259.59,388.55c6,3.65,37.33,5.8,40.67,2.28,0-6.67-13.71-3.4-22.71-11.14C265.06,369,259.85,385.28,259.59,388.55Z"/><path class="cls-2" d="M276.29,334.2l-.27,0a13.23,13.23,0,0,1-14.71-11.56l-6.81-80.22L281,239.27l6.81,80.22A13.23,13.23,0,0,1,276.29,334.2Z"/><path class="cls-2" d="M275.51,309.86l.26,0a13.22,13.22,0,0,1,12.09,14.27l-4.73,57-26.62,7L261.23,322A13.24,13.24,0,0,1,275.51,309.86Z"/><path class="cls-8" d="M285.63,216.13c-.05,1-.09,2-.15,3-13.52,5.09-26.8,8.14-39.71,8.64A89.67,89.67,0,0,1,216,224.18l-.13-3.67-1.24-32.09L213,146.58c2.33-17.58,19.48-38.37,39.86-38.37h.72c15.76,0,28.38,14.32,27.75,31.54C280.25,169,287,183.55,285.63,216.13Z"/><path class="cls-9" d="M237,389.75l-.17,1.48-.27,2.22-.1,1-1.81.08c-3,.11-6,.09-8.25-1.13v-2.33l5.61-.69h0l2.09-.27Z"/><path class="cls-9" d="M267.3,390.83l-.26,3c-6.31,2.33-16.72,2.38-30.48-.34l-2.09-.46c-2.59-.54-5.26-1.2-8.07-1.94l.22-2.5c0-.09,0-.15,0-.26l.06-.85h.09l7.12.61Z"/><path class="cls-7" d="M267.3,390.83c-2.39,2.51-19,2.14-30.47.4-.92-.13-1.81-.29-2.64-.44s-1.48-.28-2.15-.43h0a20.09,20.09,0,0,1-5.39-1.81c0-.09,0-.15,0-.26s.09-.52.15-.85c0,0,0-.09,0-.13.61-2.77,2.59-7.9,6.21-10.15,2.81-1.74,6.62-1.72,11.53,2.53a21.69,21.69,0,0,0,3.05,2.15C256.37,386.85,267.3,384.87,267.3,390.83Z"/><path class="cls-5" d="M249.8,259.75a75.35,75.35,0,0,1-13.06-.37c-.83-.06-1.68-.17-2.53-.28a18.3,18.3,0,0,1-11.82-6.29c-9.57-11.12-7-32.65-7-32.65l.52.35c7.8,5.55,18.92,7,30.43,6.2a114.77,114.77,0,0,0,39.34-10.58S291.22,257.16,249.8,259.75Z"/><path class="cls-5" d="M254.89,322.25a0,0,0,0,1,0,0,13.23,13.23,0,0,1-11.58,11.91l-.26,0a13.27,13.27,0,0,1-14.71-11.54l-.07-.74v0l-5.88-69.11-.87-10.36L241,240.12l7.08-.85,1.74,20.48,5.07,59.73A11.68,11.68,0,0,1,254.89,322.25Z"/><path class="cls-5" d="M254.89,324.16l-4.72,57-2.55.67-14,3.68-6.84,1.79-3.28.87,4.72-66.24v0a13.2,13.2,0,0,1,11.69-12,12.23,12.23,0,0,1,2.57,0l.28,0a13.21,13.21,0,0,1,12.08,12.37,0,0,0,0,1,0,0A9.74,9.74,0,0,1,254.89,324.16Z"/><polygon class="cls-5" points="274.31 161.74 243.68 119.79 271.22 121.08 274.31 161.74"/><path class="cls-4" d="M279.27,91.83l-.17-.07a3.6,3.6,0,0,0-3.89,1L274.06,107a2.55,2.55,0,0,0,.39.24c2.41,1.24,5.45-1.22,6.78-5.49S281.68,93.07,279.27,91.83Z"/><path class="cls-19" d="M279,96.81c.33-.88,2-3.62,2.1-4.78a24,24,0,0,0,.05-5.7c-1.25-7.17-4.72-8.09-6.24-7.85.4,1.41,3.16,3.79,2.44,5A3.56,3.56,0,0,1,275.58,85a1.83,1.83,0,0,0-.85,2.1,52.29,52.29,0,0,1,.45,18.38c.8.87,2.12.32,2.72-.78a8.4,8.4,0,0,0,.68-3.88A11.31,11.31,0,0,1,279,96.81Z"/><path class="cls-4" d="M276.72,103a20.3,20.3,0,0,1,1-6,24.94,24.94,0,0,0,1.18-7.41c0-11.94-9.49-18.54-21.21-18.54s-21.2,6.6-21.2,18.54a25.85,25.85,0,0,0,2.19,10.12c0,.27-.07.54-.1.8-.44,5.58,2.33,15.16,5.7,19.72s5.31,2.28,10.22,5.22c3.46,2.06,9.88,1.89,12.36-.69s4.6-2.2,6.21-4.87C275.55,115.69,276.72,110.06,276.72,103Z"/><path class="cls-19" d="M238,96.81c-.43-.88-2.58-3.62-2.71-4.78a56.08,56.08,0,0,1-.07-5.7c0-6.67,2.26-7.37,4.24-7.14a4.37,4.37,0,0,0,3,5.76,1.68,1.68,0,0,1,1.09,2.1,41,41,0,0,0-.58,18.38c-1,.87-2.73.32-3.5-.78a6.69,6.69,0,0,1-.88-3.88A9.11,9.11,0,0,0,238,96.81Z"/><path class="cls-4" d="M233.55,92.3l.19-.07a4.53,4.53,0,0,1,4.4,1.06l1.6,14.38a3.62,3.62,0,0,1-.43.24c-2.7,1.19-6.17-1.34-7.76-5.65S230.86,93.49,233.55,92.3Z"/><path class="cls-11" d="M246.86,225.56c-.2.37-.39.76-.57,1.15s-.34.67-.52,1A94.78,94.78,0,0,0,241,240.12a121,121,0,0,0-4.24,19.26c-2.27,16.52-1.53,34.5,3.22,50.52a83.24,83.24,0,0,0,3.18,9.08c-2.7,3.27-4.94,8.16-6.64,14.35-3.07,11.18-4.38,26.53-3.46,43.83.15,2.75.35,5.53.63,8.36,0,.83.13,1.68.24,2.53,0,.67.13,1.35.22,2,0,.22,0,.46.06.7.09.72.18,1.46.28,2.2.05.5.11,1,.18,1.52-3,.11-6,.09-8.25-1.13v-2.33l.22-2.5c0-.09,0-.15,0-.26l.06-.85h.09s0-.09,0-.13l-3.28.87,4.72-66.24v0l-5.88-69.11c-9.57-11.12-7-32.65-7-32.65l.52.35-1.24-32.09,18.55-41.7C231.8,175.25,234.15,203.88,246.86,225.56Z"/><path class="cls-12" d="M259.12,390.63,238,262.31a16.34,16.34,0,0,0-16.24-13.67H214.4a16.34,16.34,0,0,0-16.24,13.67L177.05,390.63l-7.25-1.17,21.11-128.32a23.64,23.64,0,0,1,23.49-19.77h7.37a23.64,23.64,0,0,1,23.49,19.77l21.11,128.32Z"/><path class="cls-1" d="M220.79,224.49l0,0a2.53,2.53,0,0,1,3.58,1A79.05,79.05,0,0,0,234.62,239a2.7,2.7,0,0,1-.06,3.7l0,0a2.51,2.51,0,0,1-3.68-.08,84.4,84.4,0,0,1-10.8-14.14A3,3,0,0,1,220.79,224.49Z"/><path class="cls-4" d="M223.7,229.65h0a2.4,2.4,0,0,1,2.94,1.7l5,18.76A2.39,2.39,0,0,1,230,253h0a2.39,2.39,0,0,1-2.93-1.7l-5-18.77A2.39,2.39,0,0,1,223.7,229.65Z"/><path class="cls-4" d="M219.54,233l.05,0a2.48,2.48,0,0,1,3.08,1.67l5,18.76a2.48,2.48,0,0,1-1.84,3h-.05a2.48,2.48,0,0,1-3.08-1.67l-5-18.76A2.47,2.47,0,0,1,219.54,233Z"/><path class="cls-4" d="M214.23,232.51l.05,0a2.43,2.43,0,0,1,3,1.7l5,18.76a2.43,2.43,0,0,1-1.75,3h-.05a2.43,2.43,0,0,1-3-1.69l-5-18.77A2.41,2.41,0,0,1,214.23,232.51Z"/><path class="cls-4" d="M210.44,235.46h0a2.14,2.14,0,0,1,2.61,1.51l3.22,12.53a2.13,2.13,0,0,1-1.51,2.61h0a2.14,2.14,0,0,1-2.61-1.52l-3.23-12.53A2.13,2.13,0,0,1,210.44,235.46Z"/><rect class="cls-13" x="208.44" y="216.59" width="12.37" height="12.84" transform="translate(-50.01 62.49) rotate(-14.86)"/><path class="cls-4" d="M212.43,243.18l0,0a2.11,2.11,0,0,0,1.51-2.6l.21.75a2.39,2.39,0,0,0,2.93,1.71l0,0a2.39,2.39,0,0,0,1.7-2.93l.19.7a2.39,2.39,0,0,0,2.93,1.7h0a2.39,2.39,0,0,0,1.7-2.93,2.4,2.4,0,0,0,2.94,1.7h0a2.41,2.41,0,0,0,1.71-2.94l-1.26-4.76-.23-.84-1.25-4.74a7.06,7.06,0,0,0-8.64-5l-4.57,1.21a7.06,7.06,0,0,0-5,8.64l1.25,4.73.23.85.87,3.3A2.14,2.14,0,0,0,212.43,243.18Z"/><rect class="cls-5" x="182.82" y="150.3" width="65.02" height="22.95" rx="11.36" transform="translate(-25.35 282.65) rotate(-63.58)"/><path class="cls-5" d="M204.85,230l19.36-7-7.87-43.26a11.36,11.36,0,0,0-13.32-9l-.22,0a11.36,11.36,0,0,0-9,13.32Z"/><rect class="cls-12" x="185.05" y="315.75" width="66.99" height="7.26"/><path class="cls-14" d="M179.89,394.89H167.27l1.45-6.74a3,3,0,0,1,2.92-2.34h4.55a3,3,0,0,1,3,2.62Z"/><path class="cls-14" d="M256.44,394.89h12.61l-1.45-6.74a3,3,0,0,0-2.91-2.34h-4.56a3,3,0,0,0-3,2.62Z"/><path class="cls-4" d="M222.63,199.64v0a2,2,0,0,0-2.24-2.1l-4.92.86c-4.42.48-3.44,3.38.43,3.3l4.79-.27C221.94,201.37,222.63,200.89,222.63,199.64Z"/><path class="cls-13" d="M222.75,207.07v0a2.12,2.12,0,0,0-2.08-2.43l-5.19.34c-4.62,0-3.93,3.11.08,3.46l5,.26C221.84,208.79,222.61,208.36,222.75,207.07Z"/><path class="cls-4" d="M223.23,203.82v0a2.12,2.12,0,0,0-2.09-2.42l-5.19.35c-4.62,0-3.93,3.13.09,3.47l5,.24C222.33,205.54,223.1,205.11,223.23,203.82Z"/><path class="cls-4" d="M221.56,210.29v0a1.8,1.8,0,0,0-1.77-2.06l-4.43.3c-3.94,0-3.35,2.66.08,2.95l4.25.21C220.79,211.76,221.45,211.4,221.56,210.29Z"/><rect class="cls-12" x="216.84" y="278.04" width="29.98" height="7.34"/><rect class="cls-12" x="228.93" y="355.13" width="30.43" height="7.34"/><path class="cls-15" d="M179.49,394.47c-3.74.2-7.71.43-10.59-1.09v-2.45l11.17-1.39Z"/><path class="cls-15" d="M168.9,390.93c19.85,5.28,26.29,5.74,34.51,2.71l.27-3.11-34.46-3.42Z"/><path class="cls-3" d="M169.12,388.28c6.27,3.86,31,6,34.55,2.24,0-3.55-8.28-3.37-17.77-11.53C172.74,367.66,170.41,377.75,169.12,388.28Z"/><path class="cls-1" d="M192.81,323.19,187,370.14l-.29,2.34-.81,6.5c-4.78,2.8-11.39,2.15-14.47-1l0,0,.14-7.24,0-2.43.85-46.27c3.88.49,5.52.87,9.38,1.16A47.52,47.52,0,0,0,192.81,323.19Z"/><path class="cls-8" d="M171.58,369.27l-.16,8.7c3.06,3.17,9.72,3.8,14.48,1l1-8.38A29.57,29.57,0,0,1,171.58,369.27Z"/><path class="cls-16" d="M187,370.14l-.29,2.34a27.83,27.83,0,0,1-4.28.31,29.62,29.62,0,0,1-10.88-2.06l0-2.43A26.86,26.86,0,0,0,187,370.14Z"/><path class="cls-9" d="M150.89,394.47c-3.74.2-7.71.43-10.6-1.09v-2.45l11.18-1.39Z"/><path class="cls-9" d="M140.29,390.93c19.86,5.28,26.3,5.74,34.52,2.71l.26-3.11-34.45-3.42Z"/><path class="cls-3" d="M140.52,388.28c6.27,3.86,31,6,34.55,2.24,0-3.55-8.28-3.37-17.77-11.53C144.14,367.66,141.81,377.75,140.52,388.28Z"/><path class="cls-1" d="M164.21,323.19l-5.81,46.95-.29,2.34-.81,6.5c-4.78,2.8-11.39,2.15-14.47-1l0,0,.13-7.24.05-2.43.85-46.27c3.88.49,5.52.87,9.38,1.16A47.52,47.52,0,0,0,164.21,323.19Z"/><path class="cls-8" d="M143,369.27l-.16,8.7c3.06,3.17,9.71,3.8,14.48,1l1-8.38A29.57,29.57,0,0,1,143,369.27Z"/><path class="cls-10" d="M158.4,370.14l-.29,2.34a27.87,27.87,0,0,1-4.29.31,29.7,29.7,0,0,1-10.88-2.06l.05-2.43A26.86,26.86,0,0,0,158.4,370.14Z"/><path class="cls-17" d="M206.09,248.36c-29.28,11.43-58.56,6.63-81.88-4.12L136,182.67c2.46-21.38,18.61-36.43,34.16-36.43h.55c12,0,16.43,5.12,22.86,15.72C200.72,173.68,193.6,212.93,206.09,248.36Z"/><path class="cls-18" d="M114.77,353.57a.42.42,0,0,0,.15,0,5.69,5.69,0,0,0,.65.24c2,.7,4,1.35,6,2,2.68.83,5.33,1.59,8,2.26,4.54,1.2,9.07,2.18,13.56,2.92,2.33.41,4.63.74,6.92,1a134.1,134.1,0,0,0,18.81,1c2.19,0,4.39-.13,6.59-.31s4.38-.37,6.55-.65a120,120,0,0,0,17.48-3.51c2.46-.67,4.9-1.43,7.32-2.26s4.85-1.79,7.24-2.79c1.42-.58,2.83-1.22,4.25-1.87.37-.15.72-.3,1.07-.48L199.75,244l-16.2.48-22.31.67-32.54,1,0,.11L115,352.11Z"/><path class="cls-18" d="M167.7,249.18c9.38-.37,19.68-1.94,28.45-5.64,2.24-.95,4.39-2,6.52-3.11-8.82-33.17-3.35-67.62-9.78-78.47-6.28-10.6-10.58-15.72-22.31-15.72h-.53c-15.16,0-30.91,15-33.31,36.43l-10.23,54.61C138.41,244.9,154.26,249.72,167.7,249.18Z"/><path class="cls-2" d="M185.87,157.78a148.16,148.16,0,0,1,2.35,31.75c-.58,21.71,1.24,42.09,8.39,62a95.56,95.56,0,0,0,9.48-3.14c-12.49-35.43-5.37-74.68-12.49-86.4-3.66-6-6.68-10.26-10.8-12.81A29.85,29.85,0,0,1,185.87,157.78Z"/><path class="cls-2" d="M124.21,244.25c1.46.68,3,1.33,4.47,1.94a115.43,115.43,0,0,0,27.88,7.71c1.85.24,3.7.45,5.57.63-.15-1.13-.3-2.29-.41-3.42-.22-2-.37-4-.48-6-.72-13.36.68-27.08,1.68-40.31.17-2.16.32-4.29.45-6.42.68-10.8,4-39.84-7.88-47.74-9.81,6-17.78,17.53-19.46,32l-6.94,36.16Z"/><path class="cls-19" d="M169.18,120.56C162,122,155.27,118.13,154.09,112s3.64-12.17,10.79-13.57,13.91,2.43,15.1,8.53S176.33,119.16,169.18,120.56Z"/><path class="cls-4" d="M192.69,130.13l-.13-.06a2.5,2.5,0,0,0-3,.8l-.63,12.72a3.55,3.55,0,0,0,.31.23c1.91,1.14,4.25-1,5.21-4.77S194.61,131.28,192.69,130.13Z"/><path class="cls-4" d="M192.3,130.12a24.56,24.56,0,0,1-1.15,7.41,1.94,1.94,0,0,1-.05.2c-.82,3.33-1.3,11.6-3.31,14.91-1.76,2.91-6.21,4.55-8.93,6.45-3.91,2.71-8.27,1.79-12.49-.28-4.49-2.22-7-2.6-9.7-6.67a25.68,25.68,0,0,1-3.12-7.89c-.17-.65-.32-1.29-.47-1.94-.3-1.27-.55-2.51-.82-3.71a23,23,0,0,1-1.68-8.67c0-12.25,9.52-22.2,21.28-22.2S192.3,117.86,192.3,130.12Z"/><path class="cls-20" d="M192.26,131.36c3.24-16.68-9.83-28.62-20.85-24C170,120.75,186.09,130.86,192.26,131.36Z"/><path class="cls-10" d="M152.81,131.07l-3.7.34c-4-16.67,9.78-28.6,26.43-25C176.78,119.55,163.09,134.25,152.81,131.07Z"/><path class="cls-4" d="M148.71,130.18a.85.85,0,0,1,.17-.06,4,4,0,0,1,3.93.95l1.44,12.86a2.93,2.93,0,0,1-.39.21c-2.41,1.07-5.52-1.2-6.94-5S146.3,131.24,148.71,130.18Z"/><path class="cls-21" d="M148,293.58,143.08,361l-.14,1.82-2.24-.2c-3.54-.68-7.27-1.55-11.42-2.61l.25-1.93c-2.65-.67-5.29-1.43-8-2.26l15.16-59.56.38-.09Z"/><path class="cls-21" d="M218.25,351.64c-1.41.65-2.83,1.27-4.24,1.86-2.4,1-4.82,1.93-7.25,2.78L197,289.52l.06.23Z"/><path class="cls-21" d="M199.45,358.55a120.79,120.79,0,0,1-17.5,3.52q-3.25.4-6.55.65c-2.19.15-4.39.24-6.59.29l.09,1.75a131,131,0,0,1-19.4-.74l.51-2,15.1-59.29,1.23,5.83v.07l.07.27,9,51.93,4.46-33.47,3-22.38,8.09,3.92Z"/><path class="cls-18" d="M168.9,364.76a131,131,0,0,1-19.4-.74c-2.88-.36-5.77-.81-8.8-1.41-3.54-.68-7.27-1.55-11.42-2.61l.25-1.93,7.58-61.91,1.12-9.06,27.35,4.49.76,17v.07l2.47,54.4Z"/><path class="cls-18" d="M214.73,354.29c-1.44.74-2.9,1.44-4.42,2.09h0A78,78,0,0,1,200,360a84.44,84.44,0,0,1-17.92,2.85l-.16-2.7-2.13-34.72-2.08-34.1,17.56-10.2,1.71,6.48.06.22L214,351.63Z"/><path class="cls-11" d="M114.77,358.79c.26-1.63.52-3.28.8-4.94,6.4-38.74,16.74-84.39,35.64-95.47a31.93,31.93,0,0,1,10.51-7.27c5.64-2.46,12.41-3.94,21.83-6.68,1.31-.37,2.68-.79,4.09-1.22-10.68-12.34-19-25.14-24.72-38.42a114.45,114.45,0,0,1-8.67-31.56l-25.16,45.6-4.88,25.42c1.46.68,3,1.33,4.47,1.94L115,352.11l0,1.5Z"/><path class="cls-22" d="M177.7,237.63l0,0c.67-1.18,3.79-.71,5,.06a58.64,58.64,0,0,0,12.63,6.16c1.24.46,2.46.9,2.27,2.22-.11.81-1.61,2.06-4.06,1.43a51.22,51.22,0,0,1-14.75-6.17A2.83,2.83,0,0,1,177.7,237.63Z"/><rect class="cls-19" x="157.19" y="315.75" width="66.99" height="7.26"/><path class="cls-10" d="M231.26,390.63,210.15,262.31a16.34,16.34,0,0,0-16.24-13.67h-7.37a16.34,16.34,0,0,0-16.24,13.67L149.19,390.63l-7.25-1.17,21.11-128.32a23.64,23.64,0,0,1,23.49-19.77h7.37a23.64,23.64,0,0,1,23.49,19.77l21.11,128.32Z"/><path class="cls-9" d="M152,394.89H139.41l1.45-6.74a3,3,0,0,1,2.91-2.34h4.56a3,3,0,0,1,3,2.62Z"/><path class="cls-9" d="M228.57,394.89h12.62l-1.45-6.74a3,3,0,0,0-2.91-2.34h-4.56a3,3,0,0,0-3,2.62Z"/><path class="cls-1" d="M182.5,239.68l0,0a2.24,2.24,0,0,1,3.13.46l6,9.42c2.91,4.12-.23,6.16-3,2.24l-6.82-8.8A2.48,2.48,0,0,1,182.5,239.68Z"/><path class="cls-1" d="M179.44,244.12l0,0a2.3,2.3,0,0,1,3.26.07l7.15,8.94c2.6,3.1-.42,5.71-2.72,3l-8-8.72A2.31,2.31,0,0,1,179.44,244.12Z"/><path class="cls-1" d="M175.13,246.24l0,0a2.25,2.25,0,0,1,3.19.14l7.77,8.6a2.1,2.1,0,0,1,.13,3.05,2,2,0,0,1-2.82-.43l-8.51-8.14A2.25,2.25,0,0,1,175.13,246.24Z"/><path class="cls-1" d="M173.24,250.29l0,0a2,2,0,0,1,2.8.15l5.62,5.42c.74.81,1.6,2.39.78,3.12,0,0-1.45,1.26-3.1-.52l-5.59-4.95C173,252.68,172.42,251,173.24,250.29Z"/><path class="cls-4" d="M178.34,253c2.32,2.34,4.93-.18,3.85-2.48a2.21,2.21,0,0,0,3.61-2.45c1.79,1.88,4.85-.77,3.45-2.8l-3-3.7-.54-.6-1.43-2c-2.43-2.7-8.21-4.3-10.91-1.87L170.13,240c-2.7,2.43-1.12,8.46,1.31,11.16l5,4.83C177.21,256.85,180.35,255.54,178.34,253Z"/><path class="cls-2" d="M147.66,216.07h-.19a9.19,9.19,0,0,1-9.05-9.34l.56-34.24a9.2,9.2,0,0,1,9.35-9h.18a9.19,9.19,0,0,1,9.05,9.34L157,207A9.19,9.19,0,0,1,147.66,216.07Z"/><path class="cls-2" d="M168.08,244.52l9.81-8.57L155,202.58a9.2,9.2,0,0,0-12.86-1.93l-.15.11a9.19,9.19,0,0,0-1.93,12.86Z"/><circle class="cls-23" cx="233.25" cy="233.25" r="232.25"/><path class="cls-1" d="M219.65,232.66l-3.88-5.95c-2.79,1.75-5.73,3.52-8.53,5.41l4.37,5.95c-.82,3.08,5.25,12.43,5.25,12.43A29,29,0,0,0,229.27,245l-2.68-5.63S221.68,232.2,219.65,232.66Z"/><path class="cls-2" d="M202.84,202.55l-.17.07a9.2,9.2,0,0,1-12.08-4.84l-13.46-31.49A9.2,9.2,0,0,1,182,154.22l.17-.07A9.19,9.19,0,0,1,194.22,159l13.46,31.48A9.2,9.2,0,0,1,202.84,202.55Z"/><path class="cls-2" d="M217.82,211.85l2.79-12.64L185.9,188.27a9.21,9.21,0,0,0-11.24,6.55l0,.18a9.2,9.2,0,0,0,6.55,11.24Z"/><path class="cls-1" d="M340,212.73l2.4-2.15v0c-.25-.17-5.57-4.3-6-4.6a7.33,7.33,0,0,0-5.87-.78l-1.13.4-5.49-1.41c-2.19,4.49-4.38,9-6.79,13.35,2.43,1.32,5.26,2.72,5.52,3l-.14,1.28,5.24,5.44a1.68,1.68,0,0,0,.42-1.1l.17.49a2.31,2.31,0,0,0,1.15,1.25,2.16,2.16,0,0,0,1.71.07l.91-.32a2.41,2.41,0,0,0,1.58-2.32l.46,1.25a2.38,2.38,0,0,0,.24.45,34.15,34.15,0,0,0,4.55-3.3s0,0,.07-.06c1.49-1.21,2.91-2.56,4.38-4,.53-.51,1.06-1.07,1.62-1.62Z"/><path class="cls-3" d="M320.57,234.48a3.74,3.74,0,0,0,3.74-3.74,10.07,10.07,0,0,1,17.88-6.06c1.89,2.48,2,5.26,2.05,9.22q0,10.95,0,21.91V395h7.48V255.82c0-7.31,0-14.62,0-21.93,0-3.84,0-9.09-3.59-13.76a17.55,17.55,0,0,0-31.3,10.61A3.74,3.74,0,0,0,320.57,234.48Z"/><path class="cls-4" d="M337.21,219.09a2.55,2.55,0,0,1,1.53-3.27l.44-.16a2.49,2.49,0,0,1,1.95.08,2.56,2.56,0,0,1,1.32,1.44l1.76,4.85a2.37,2.37,0,0,1-1.42,3.05l-.91.33a2.22,2.22,0,0,1-2.85-1.33Z"/><path class="cls-4" d="M339.22,226.27a2.41,2.41,0,0,1-1.36,1.25l-.9.32a2.23,2.23,0,0,1-2.61-.83,2.38,2.38,0,0,1-.24-.45l-.46-1.25-1.9-5a2.46,2.46,0,0,1,.07-2,2.44,2.44,0,0,1,1.44-1.34l.43-.17a2.55,2.55,0,0,1,3.25,1.49l.26.7,0,.09,1.73,4.51.29.79a.48.48,0,0,1,.05.17A2.27,2.27,0,0,1,339.22,226.27Z"/><path class="cls-4" d="M333.65,225.31a2.41,2.41,0,0,1-1.58,2.32l-.91.32a2.16,2.16,0,0,1-1.71-.07,2.31,2.31,0,0,1-1.15-1.25l-.17-.49-1.63-4.51a1.31,1.31,0,0,1-.09-.34,2.53,2.53,0,0,1,1.6-2.94l.44-.15a2.52,2.52,0,0,1,2,.09,2.45,2.45,0,0,1,1.17,1.12,1.82,1.82,0,0,1,.15.32l1.77,4.83A3.69,3.69,0,0,1,333.65,225.31Z"/><path class="cls-4" d="M328.13,226.14a1.68,1.68,0,0,1-.42,1.1,1.77,1.77,0,0,1-.9.64l-.74.28a1.79,1.79,0,0,1-2.32-1l-1.4-3.83a1.86,1.86,0,0,1,.12-1.55,2.23,2.23,0,0,1,1.19-1l.37-.15a2.09,2.09,0,0,1,2.38.64,2.39,2.39,0,0,1,.28.49L328,225.5A1.78,1.78,0,0,1,328.13,226.14Z"/><path class="cls-4" d="M343.06,216l-.16-4.23a1.75,1.75,0,0,0-.51-1.19h0c-.25-.19-5.57-4.31-6-4.6a7.33,7.33,0,0,0-5.87-.79l-1.13.4-5.5-1.41c-1.2,2.48-2.41,5-3.65,7.43l3.72,1.14c4.84,6.38,12.19.69,12.19.69l.72.54a1.48,1.48,0,0,1,.57,1.1l.06,2.22a3.43,3.43,0,0,0,3.61,3.29l.53,0a1.63,1.63,0,0,0,1.55-1.7Z"/><path class="cls-5" d="M289,197.66l-.22.07a11.35,11.35,0,0,1-14.45-7l-13.86-40a11.36,11.36,0,0,1,7-14.46l.22-.07a11.36,11.36,0,0,1,14.46,7l13.85,40A11.36,11.36,0,0,1,289,197.66Z"/><path class="cls-5" d="M325.8,202.35l-34.42-23.73a11.37,11.37,0,0,0-15.6,3.85l-.12.19a11.37,11.37,0,0,0,3.85,15.6l36.18,21.89C316.18,220.44,325.27,203.48,325.8,202.35Z"/><path class="cls-6" d="M269.42,394.42c-3.54.19-7.31.41-10.05-1v-2.32L270,389.74Z"/><path class="cls-6" d="M259.37,391.06c18.84,5,32.84,5.61,40.64,2.73l.25-3-40.58-3.41Z"/><path class="cls-7" d="M259.59,388.55c6,3.65,37.33,5.8,40.67,2.28,0-6.67-13.71-3.4-22.71-11.14C265.06,369,259.85,385.28,259.59,388.55Z"/><path class="cls-2" d="M276.29,334.2l-.27,0a13.23,13.23,0,0,1-14.71-11.56l-6.81-80.22L281,239.27l6.81,80.22A13.23,13.23,0,0,1,276.29,334.2Z"/><path class="cls-2" d="M275.51,309.86l.26,0a13.22,13.22,0,0,1,12.09,14.27l-4.73,57-26.62,7L261.23,322A13.24,13.24,0,0,1,275.51,309.86Z"/><path class="cls-8" d="M285.63,216.13c-.05,1-.09,2-.15,3-13.52,5.09-26.8,8.14-39.71,8.64A89.67,89.67,0,0,1,216,224.18l-.13-3.67-1.24-32.09L213,146.58c2.33-17.58,19.48-38.37,39.86-38.37h.72c15.76,0,28.38,14.32,27.75,31.54C280.25,169,287,183.55,285.63,216.13Z"/><path class="cls-9" d="M237,389.75l-.17,1.48-.27,2.22-.1,1-1.81.08c-3,.11-6,.09-8.25-1.13v-2.33l5.61-.69h0l2.09-.27Z"/><path class="cls-9" d="M267.3,390.83l-.26,3c-6.31,2.33-16.72,2.38-30.48-.34l-2.09-.46c-2.59-.54-5.26-1.2-8.07-1.94l.22-2.5c0-.09,0-.15,0-.26l.06-.85h.09l7.12.61Z"/><path class="cls-7" d="M267.3,390.83c-2.39,2.51-19,2.14-30.47.4-.92-.13-1.81-.29-2.64-.44s-1.48-.28-2.15-.43h0a20.09,20.09,0,0,1-5.39-1.81c0-.09,0-.15,0-.26s.09-.52.15-.85c0,0,0-.09,0-.13.61-2.77,2.59-7.9,6.21-10.15,2.81-1.74,6.62-1.72,11.53,2.53a21.69,21.69,0,0,0,3.05,2.15C256.37,386.85,267.3,384.87,267.3,390.83Z"/><path class="cls-5" d="M249.8,259.75a75.35,75.35,0,0,1-13.06-.37c-.83-.06-1.68-.17-2.53-.28a18.3,18.3,0,0,1-11.82-6.29c-9.57-11.12-7-32.65-7-32.65l.52.35c7.8,5.55,18.92,7,30.43,6.2a114.77,114.77,0,0,0,39.34-10.58S291.22,257.16,249.8,259.75Z"/><path class="cls-5" d="M254.89,322.25a0,0,0,0,1,0,0,13.23,13.23,0,0,1-11.58,11.91l-.26,0a13.27,13.27,0,0,1-14.71-11.54l-.07-.74v0l-5.88-69.11-.87-10.36L241,240.12l7.08-.85,1.74,20.48,5.07,59.73A11.68,11.68,0,0,1,254.89,322.25Z"/><path class="cls-5" d="M254.89,324.16l-4.72,57-2.55.67-14,3.68-6.84,1.79-3.28.87,4.72-66.24v0a13.2,13.2,0,0,1,11.69-12,12.23,12.23,0,0,1,2.57,0l.28,0a13.21,13.21,0,0,1,12.08,12.37,0,0,0,0,1,0,0A9.74,9.74,0,0,1,254.89,324.16Z"/><polygon class="cls-5" points="274.31 161.74 243.68 119.79 271.22 121.08 274.31 161.74"/><path class="cls-4" d="M279.27,91.83l-.17-.07a3.6,3.6,0,0,0-3.89,1L274.06,107a2.55,2.55,0,0,0,.39.24c2.41,1.24,5.45-1.22,6.78-5.49S281.68,93.07,279.27,91.83Z"/><path class="cls-10" d="M279,96.81c.33-.88,2-3.62,2.1-4.78a24,24,0,0,0,.05-5.7c-1.25-7.17-4.72-8.09-6.24-7.85.4,1.41,3.16,3.79,2.44,5A3.56,3.56,0,0,1,275.58,85a1.83,1.83,0,0,0-.85,2.1,52.29,52.29,0,0,1,.45,18.38c.8.87,2.12.32,2.72-.78a8.4,8.4,0,0,0,.68-3.88A11.31,11.31,0,0,1,279,96.81Z"/><path class="cls-4" d="M276.72,103a20.3,20.3,0,0,1,1-6,24.94,24.94,0,0,0,1.18-7.41c0-11.94-9.49-18.54-21.21-18.54s-21.2,6.6-21.2,18.54a25.85,25.85,0,0,0,2.19,10.12c0,.27-.07.54-.1.8-.44,5.58,2.33,15.16,5.7,19.72s5.31,2.28,10.22,5.22c3.46,2.06,9.88,1.89,12.36-.69s4.6-2.2,6.21-4.87C275.55,115.69,276.72,110.06,276.72,103Z"/><path class="cls-10" d="M238,96.81c-.43-.88-2.58-3.62-2.71-4.78a56.08,56.08,0,0,1-.07-5.7c0-6.67,2.26-7.37,4.24-7.14a4.37,4.37,0,0,0,3,5.76,1.68,1.68,0,0,1,1.09,2.1,41,41,0,0,0-.58,18.38c-1,.87-2.73.32-3.5-.78a6.69,6.69,0,0,1-.88-3.88A9.11,9.11,0,0,0,238,96.81Z"/><path class="cls-4" d="M233.55,92.3l.19-.07a4.53,4.53,0,0,1,4.4,1.06l1.6,14.38a3.62,3.62,0,0,1-.43.24c-2.7,1.19-6.17-1.34-7.76-5.65S230.86,93.49,233.55,92.3Z"/><path class="cls-11" d="M246.86,225.56c-.2.37-.39.76-.57,1.15s-.34.67-.52,1A94.78,94.78,0,0,0,241,240.12a121,121,0,0,0-4.24,19.26c-2.27,16.52-1.53,34.5,3.22,50.52a83.24,83.24,0,0,0,3.18,9.08c-2.7,3.27-4.94,8.16-6.64,14.35-3.07,11.18-4.38,26.53-3.46,43.83.15,2.75.35,5.53.63,8.36,0,.83.13,1.68.24,2.53,0,.67.13,1.35.22,2,0,.22,0,.46.06.7.09.72.18,1.46.28,2.2.05.5.11,1,.18,1.52-3,.11-6,.09-8.25-1.13v-2.33l.22-2.5c0-.09,0-.15,0-.26l.06-.85h.09s0-.09,0-.13l-3.28.87,4.72-66.24v0l-5.88-69.11c-9.57-11.12-7-32.65-7-32.65l.52.35-1.24-32.09,18.55-41.7C231.8,175.25,234.15,203.88,246.86,225.56Z"/><path class="cls-12" d="M259.12,390.63,238,262.31a16.34,16.34,0,0,0-16.24-13.67H214.4a16.34,16.34,0,0,0-16.24,13.67L177.05,390.63l-7.25-1.17,21.11-128.32a23.64,23.64,0,0,1,23.49-19.77h7.37a23.64,23.64,0,0,1,23.49,19.77l21.11,128.32Z"/><path class="cls-1" d="M220.79,224.49l0,0a2.53,2.53,0,0,1,3.58,1A79.05,79.05,0,0,0,234.62,239a2.7,2.7,0,0,1-.06,3.7l0,0a2.51,2.51,0,0,1-3.68-.08,84.4,84.4,0,0,1-10.8-14.14A3,3,0,0,1,220.79,224.49Z"/><path class="cls-4" d="M223.7,229.65h0a2.4,2.4,0,0,1,2.94,1.7l5,18.76A2.39,2.39,0,0,1,230,253h0a2.39,2.39,0,0,1-2.93-1.7l-5-18.77A2.39,2.39,0,0,1,223.7,229.65Z"/><path class="cls-4" d="M219.54,233l.05,0a2.48,2.48,0,0,1,3.08,1.67l5,18.76a2.48,2.48,0,0,1-1.84,3h-.05a2.48,2.48,0,0,1-3.08-1.67l-5-18.76A2.47,2.47,0,0,1,219.54,233Z"/><path class="cls-4" d="M214.23,232.51l.05,0a2.43,2.43,0,0,1,3,1.7l5,18.76a2.43,2.43,0,0,1-1.75,3h-.05a2.43,2.43,0,0,1-3-1.69l-5-18.77A2.41,2.41,0,0,1,214.23,232.51Z"/><path class="cls-4" d="M210.44,235.46h0a2.14,2.14,0,0,1,2.61,1.51l3.22,12.53a2.13,2.13,0,0,1-1.51,2.61h0a2.14,2.14,0,0,1-2.61-1.52l-3.23-12.53A2.13,2.13,0,0,1,210.44,235.46Z"/><rect class="cls-13" x="208.44" y="216.59" width="12.37" height="12.84" transform="translate(-50.01 62.49) rotate(-14.86)"/><path class="cls-4" d="M212.43,243.18l0,0a2.11,2.11,0,0,0,1.51-2.6l.21.75a2.39,2.39,0,0,0,2.93,1.71l0,0a2.39,2.39,0,0,0,1.7-2.93l.19.7a2.39,2.39,0,0,0,2.93,1.7h0a2.39,2.39,0,0,0,1.7-2.93,2.4,2.4,0,0,0,2.94,1.7h0a2.41,2.41,0,0,0,1.71-2.94l-1.26-4.76-.23-.84-1.25-4.74a7.06,7.06,0,0,0-8.64-5l-4.57,1.21a7.06,7.06,0,0,0-5,8.64l1.25,4.73.23.85.87,3.3A2.14,2.14,0,0,0,212.43,243.18Z"/><rect class="cls-5" x="182.82" y="150.3" width="65.02" height="22.95" rx="11.36" transform="translate(-25.35 282.65) rotate(-63.58)"/><path class="cls-5" d="M204.85,230l19.36-7-7.87-43.26a11.36,11.36,0,0,0-13.32-9l-.22,0a11.36,11.36,0,0,0-9,13.32Z"/><rect class="cls-12" x="185.05" y="315.75" width="66.99" height="7.26"/><path class="cls-14" d="M179.89,394.89H167.27l1.45-6.74a3,3,0,0,1,2.92-2.34h4.55a3,3,0,0,1,3,2.62Z"/><path class="cls-14" d="M256.44,394.89h12.61l-1.45-6.74a3,3,0,0,0-2.91-2.34h-4.56a3,3,0,0,0-3,2.62Z"/><path class="cls-4" d="M222.63,199.64v0a2,2,0,0,0-2.24-2.1l-4.92.86c-4.42.48-3.44,3.38.43,3.3l4.79-.27C221.94,201.37,222.63,200.89,222.63,199.64Z"/><path class="cls-13" d="M222.75,207.07v0a2.12,2.12,0,0,0-2.08-2.43l-5.19.34c-4.62,0-3.93,3.11.08,3.46l5,.26C221.84,208.79,222.61,208.36,222.75,207.07Z"/><path class="cls-4" d="M223.23,203.82v0a2.12,2.12,0,0,0-2.09-2.42l-5.19.35c-4.62,0-3.93,3.13.09,3.47l5,.24C222.33,205.54,223.1,205.11,223.23,203.82Z"/><path class="cls-4" d="M221.56,210.29v0a1.8,1.8,0,0,0-1.77-2.06l-4.43.3c-3.94,0-3.35,2.66.08,2.95l4.25.21C220.79,211.76,221.45,211.4,221.56,210.29Z"/><rect class="cls-12" x="216.84" y="278.04" width="29.98" height="7.34"/><rect class="cls-12" x="228.93" y="355.13" width="30.43" height="7.34"/><path class="cls-15" d="M179.49,394.47c-3.74.2-7.71.43-10.59-1.09v-2.45l11.17-1.39Z"/><path class="cls-15" d="M168.9,390.93c19.85,5.28,26.29,5.74,34.51,2.71l.27-3.11-34.46-3.42Z"/><path class="cls-3" d="M169.12,388.28c6.27,3.86,31,6,34.55,2.24,0-3.55-8.28-3.37-17.77-11.53C172.74,367.66,170.41,377.75,169.12,388.28Z"/><path class="cls-1" d="M192.81,323.19,187,370.14l-.29,2.34-.81,6.5c-4.78,2.8-11.39,2.15-14.47-1l0,0,.14-7.24,0-2.43.85-46.27c3.88.49,5.52.87,9.38,1.16A47.52,47.52,0,0,0,192.81,323.19Z"/><path class="cls-8" d="M171.58,369.27l-.16,8.7c3.06,3.17,9.72,3.8,14.48,1l1-8.38A29.57,29.57,0,0,1,171.58,369.27Z"/><path class="cls-16" d="M187,370.14l-.29,2.34a27.83,27.83,0,0,1-4.28.31,29.62,29.62,0,0,1-10.88-2.06l0-2.43A26.86,26.86,0,0,0,187,370.14Z"/><path class="cls-9" d="M150.89,394.47c-3.74.2-7.71.43-10.6-1.09v-2.45l11.18-1.39Z"/><path class="cls-9" d="M140.29,390.93c19.86,5.28,26.3,5.74,34.52,2.71l.26-3.11-34.45-3.42Z"/><path class="cls-3" d="M140.52,388.28c6.27,3.86,31,6,34.55,2.24,0-3.55-8.28-3.37-17.77-11.53C144.14,367.66,141.81,377.75,140.52,388.28Z"/><path class="cls-1" d="M164.21,323.19l-5.81,46.95-.29,2.34-.81,6.5c-4.78,2.8-11.39,2.15-14.47-1l0,0,.13-7.24.05-2.43.85-46.27c3.88.49,5.52.87,9.38,1.16A47.52,47.52,0,0,0,164.21,323.19Z"/><path class="cls-8" d="M143,369.27l-.16,8.7c3.06,3.17,9.71,3.8,14.48,1l1-8.38A29.57,29.57,0,0,1,143,369.27Z"/><path class="cls-10" d="M158.4,370.14l-.29,2.34a27.87,27.87,0,0,1-4.29.31,29.7,29.7,0,0,1-10.88-2.06l.05-2.43A26.86,26.86,0,0,0,158.4,370.14Z"/><path class="cls-17" d="M206.09,248.36c-29.28,11.43-58.56,6.63-81.88-4.12L136,182.67c2.46-21.38,18.61-36.43,34.16-36.43h.55c12,0,16.43,5.12,22.86,15.72C200.72,173.68,193.6,212.93,206.09,248.36Z"/><path class="cls-18" d="M114.77,353.57a.42.42,0,0,0,.15,0,5.69,5.69,0,0,0,.65.24c2,.7,4,1.35,6,2,2.68.83,5.33,1.59,8,2.26,4.54,1.2,9.07,2.18,13.56,2.92,2.33.41,4.63.74,6.92,1a134.1,134.1,0,0,0,18.81,1c2.19,0,4.39-.13,6.59-.31s4.38-.37,6.55-.65a120,120,0,0,0,17.48-3.51c2.46-.67,4.9-1.43,7.32-2.26s4.85-1.79,7.24-2.79c1.42-.58,2.83-1.22,4.25-1.87.37-.15.72-.3,1.07-.48L199.75,244l-16.2.48-22.31.67-32.54,1,0,.11L115,352.11Z"/><path class="cls-18" d="M167.7,249.18c9.38-.37,19.68-1.94,28.45-5.64,2.24-.95,4.39-2,6.52-3.11-8.82-33.17-3.35-67.62-9.78-78.47-6.28-10.6-10.58-15.72-22.31-15.72h-.53c-15.16,0-30.91,15-33.31,36.43l-10.23,54.61C138.41,244.9,154.26,249.72,167.7,249.18Z"/><path class="cls-2" d="M185.87,157.78a148.16,148.16,0,0,1,2.35,31.75c-.58,21.71,1.24,42.09,8.39,62a95.56,95.56,0,0,0,9.48-3.14c-12.49-35.43-5.37-74.68-12.49-86.4-3.66-6-6.68-10.26-10.8-12.81A29.85,29.85,0,0,1,185.87,157.78Z"/><path class="cls-2" d="M124.21,244.25c1.46.68,3,1.33,4.47,1.94a115.43,115.43,0,0,0,27.88,7.71c1.85.24,3.7.45,5.57.63-.15-1.13-.3-2.29-.41-3.42-.22-2-.37-4-.48-6-.72-13.36.68-27.08,1.68-40.31.17-2.16.32-4.29.45-6.42.68-10.8,4-39.84-7.88-47.74-9.81,6-17.78,17.53-19.46,32l-6.94,36.16Z"/><path class="cls-19" d="M169.18,120.56C162,122,155.27,118.13,154.09,112s3.64-12.17,10.79-13.57,13.91,2.43,15.1,8.53S176.33,119.16,169.18,120.56Z"/><path class="cls-4" d="M192.69,130.13l-.13-.06a2.5,2.5,0,0,0-3,.8l-.63,12.72a3.55,3.55,0,0,0,.31.23c1.91,1.14,4.25-1,5.21-4.77S194.61,131.28,192.69,130.13Z"/><path class="cls-4" d="M192.3,130.12a24.56,24.56,0,0,1-1.15,7.41,1.94,1.94,0,0,1-.05.2c-.82,3.33-1.3,11.6-3.31,14.91-1.76,2.91-6.21,4.55-8.93,6.45-3.91,2.71-8.27,1.79-12.49-.28-4.49-2.22-7-2.6-9.7-6.67a25.68,25.68,0,0,1-3.12-7.89c-.17-.65-.32-1.29-.47-1.94-.3-1.27-.55-2.51-.82-3.71a23,23,0,0,1-1.68-8.67c0-12.25,9.52-22.2,21.28-22.2S192.3,117.86,192.3,130.12Z"/><path class="cls-20" d="M192.26,131.36c3.24-16.68-9.83-28.62-20.85-24C170,120.75,186.09,130.86,192.26,131.36Z"/><path class="cls-10" d="M152.81,131.07l-3.7.34c-4-16.67,9.78-28.6,26.43-25C176.78,119.55,163.09,134.25,152.81,131.07Z"/><path class="cls-4" d="M148.71,130.18a.85.85,0,0,1,.17-.06,4,4,0,0,1,3.93.95l1.44,12.86a2.93,2.93,0,0,1-.39.21c-2.41,1.07-5.52-1.2-6.94-5S146.3,131.24,148.71,130.18Z"/><path class="cls-21" d="M148,293.58,143.08,361l-.14,1.82-2.24-.2c-3.54-.68-7.27-1.55-11.42-2.61l.25-1.93c-2.65-.67-5.29-1.43-8-2.26l15.16-59.56.38-.09Z"/><path class="cls-21" d="M218.25,351.64c-1.41.65-2.83,1.27-4.24,1.86-2.4,1-4.82,1.93-7.25,2.78L197,289.52l.06.23Z"/><path class="cls-21" d="M199.45,358.55a120.79,120.79,0,0,1-17.5,3.52q-3.25.4-6.55.65c-2.19.15-4.39.24-6.59.29l.09,1.75a131,131,0,0,1-19.4-.74l.51-2,15.1-59.29,1.23,5.83v.07l.07.27,9,51.93,4.46-33.47,3-22.38,8.09,3.92Z"/><path class="cls-18" d="M168.9,364.76a131,131,0,0,1-19.4-.74c-2.88-.36-5.77-.81-8.8-1.41-3.54-.68-7.27-1.55-11.42-2.61l.25-1.93,7.58-61.91,1.12-9.06,27.35,4.49.76,17v.07l2.47,54.4Z"/><path class="cls-18" d="M214.73,354.29c-1.44.74-2.9,1.44-4.42,2.09h0A78,78,0,0,1,200,360a84.44,84.44,0,0,1-17.92,2.85l-.16-2.7-2.13-34.72-2.08-34.1,17.56-10.2,1.71,6.48.06.22L214,351.63Z"/><path class="cls-11" d="M114.77,358.79c.26-1.63.52-3.28.8-4.94,6.4-38.74,16.74-84.39,35.64-95.47a31.93,31.93,0,0,1,10.51-7.27c5.64-2.46,12.41-3.94,21.83-6.68,1.31-.37,2.68-.79,4.09-1.22-10.68-12.34-19-25.14-24.72-38.42a114.45,114.45,0,0,1-8.67-31.56l-25.16,45.6-4.88,25.42c1.46.68,3,1.33,4.47,1.94L115,352.11l0,1.5Z"/><path class="cls-22" d="M177.7,237.63l0,0c.67-1.18,3.79-.71,5,.06a58.64,58.64,0,0,0,12.63,6.16c1.24.46,2.46.9,2.27,2.22-.11.81-1.61,2.06-4.06,1.43a51.22,51.22,0,0,1-14.75-6.17A2.83,2.83,0,0,1,177.7,237.63Z"/><rect class="cls-19" x="157.19" y="315.75" width="66.99" height="7.26"/><path class="cls-10" d="M231.26,390.63,210.15,262.31a16.34,16.34,0,0,0-16.24-13.67h-7.37a16.34,16.34,0,0,0-16.24,13.67L149.19,390.63l-7.25-1.17,21.11-128.32a23.64,23.64,0,0,1,23.49-19.77h7.37a23.64,23.64,0,0,1,23.49,19.77l21.11,128.32Z"/><path class="cls-9" d="M152,394.89H139.41l1.45-6.74a3,3,0,0,1,2.91-2.34h4.56a3,3,0,0,1,3,2.62Z"/><path class="cls-9" d="M228.57,394.89h12.62l-1.45-6.74a3,3,0,0,0-2.91-2.34h-4.56a3,3,0,0,0-3,2.62Z"/><path class="cls-1" d="M182.5,239.68l0,0a2.24,2.24,0,0,1,3.13.46l6,9.42c2.91,4.12-.23,6.16-3,2.24l-6.82-8.8A2.48,2.48,0,0,1,182.5,239.68Z"/><path class="cls-1" d="M179.44,244.12l0,0a2.3,2.3,0,0,1,3.26.07l7.15,8.94c2.6,3.1-.42,5.71-2.72,3l-8-8.72A2.31,2.31,0,0,1,179.44,244.12Z"/><path class="cls-1" d="M175.13,246.24l0,0a2.25,2.25,0,0,1,3.19.14l7.77,8.6a2.1,2.1,0,0,1,.13,3.05,2,2,0,0,1-2.82-.43l-8.51-8.14A2.25,2.25,0,0,1,175.13,246.24Z"/><path class="cls-1" d="M173.24,250.29l0,0a2,2,0,0,1,2.8.15l5.62,5.42c.74.81,1.6,2.39.78,3.12,0,0-1.45,1.26-3.1-.52l-5.59-4.95C173,252.68,172.42,251,173.24,250.29Z"/><path class="cls-4" d="M178.34,253c2.32,2.34,4.93-.18,3.85-2.48a2.21,2.21,0,0,0,3.61-2.45c1.79,1.88,4.85-.77,3.45-2.8l-3-3.7-.54-.6-1.43-2c-2.43-2.7-8.21-4.3-10.91-1.87L170.13,240c-2.7,2.43-1.12,8.46,1.31,11.16l5,4.83C177.21,256.85,180.35,255.54,178.34,253Z"/><path class="cls-2" d="M147.66,216.07h-.19a9.19,9.19,0,0,1-9.05-9.34l.56-34.24a9.2,9.2,0,0,1,9.35-9h.18a9.19,9.19,0,0,1,9.05,9.34L157,207A9.19,9.19,0,0,1,147.66,216.07Z"/><path class="cls-2" d="M168.08,244.52l9.81-8.57L155,202.58a9.2,9.2,0,0,0-12.86-1.93l-.15.11a9.19,9.19,0,0,0-1.93,12.86Z"/><path class="cls-1" d="M219.65,232.66l-3.88-5.95c-2.79,1.75-5.73,3.52-8.53,5.41l4.37,5.95c-.82,3.08,5.25,12.43,5.25,12.43A29,29,0,0,0,229.27,245l-2.68-5.63S221.68,232.2,219.65,232.66Z"/><path class="cls-2" d="M202.84,202.55l-.17.07a9.2,9.2,0,0,1-12.08-4.84l-13.46-31.49A9.2,9.2,0,0,1,182,154.22l.17-.07A9.19,9.19,0,0,1,194.22,159l13.46,31.48A9.2,9.2,0,0,1,202.84,202.55Z"/><path class="cls-2" d="M217.82,211.85l2.79-12.64L185.9,188.27a9.21,9.21,0,0,0-11.24,6.55l0,.18a9.2,9.2,0,0,0,6.55,11.24Z"/><path class="cls-1" d="M340,212.73l2.4-2.15v0c-.25-.17-5.57-4.3-6-4.6a7.33,7.33,0,0,0-5.87-.78l-1.13.4-5.49-1.41c-2.19,4.49-4.38,9-6.79,13.35,2.43,1.32,5.26,2.72,5.52,3l-.14,1.28,5.24,5.44a1.68,1.68,0,0,0,.42-1.1l.17.49a2.31,2.31,0,0,0,1.15,1.25,2.16,2.16,0,0,0,1.71.07l.91-.32a2.41,2.41,0,0,0,1.58-2.32l.46,1.25a2.38,2.38,0,0,0,.24.45,34.15,34.15,0,0,0,4.55-3.3s0,0,.07-.06c1.49-1.21,2.91-2.56,4.38-4,.53-.51,1.06-1.07,1.62-1.62Z"/><path class="cls-3" d="M320.57,234.48a3.74,3.74,0,0,0,3.74-3.74,10.07,10.07,0,0,1,17.88-6.06c1.89,2.48,2,5.26,2.05,9.22q0,10.95,0,21.91V395h7.48V255.82c0-7.31,0-14.62,0-21.93,0-3.84,0-9.09-3.59-13.76a17.55,17.55,0,0,0-31.3,10.61A3.74,3.74,0,0,0,320.57,234.48Z"/><path class="cls-4" d="M337.21,219.09a2.55,2.55,0,0,1,1.53-3.27l.44-.16a2.49,2.49,0,0,1,1.95.08,2.56,2.56,0,0,1,1.32,1.44l1.76,4.85a2.37,2.37,0,0,1-1.42,3.05l-.91.33a2.22,2.22,0,0,1-2.85-1.33Z"/><path class="cls-4" d="M339.22,226.27a2.41,2.41,0,0,1-1.36,1.25l-.9.32a2.23,2.23,0,0,1-2.61-.83,2.38,2.38,0,0,1-.24-.45l-.46-1.25-1.9-5a2.46,2.46,0,0,1,.07-2,2.44,2.44,0,0,1,1.44-1.34l.43-.17a2.55,2.55,0,0,1,3.25,1.49l.26.7,0,.09,1.73,4.51.29.79a.48.48,0,0,1,.05.17A2.27,2.27,0,0,1,339.22,226.27Z"/><path class="cls-4" d="M333.65,225.31a2.41,2.41,0,0,1-1.58,2.32l-.91.32a2.16,2.16,0,0,1-1.71-.07,2.31,2.31,0,0,1-1.15-1.25l-.17-.49-1.63-4.51a1.31,1.31,0,0,1-.09-.34,2.53,2.53,0,0,1,1.6-2.94l.44-.15a2.52,2.52,0,0,1,2,.09,2.45,2.45,0,0,1,1.17,1.12,1.82,1.82,0,0,1,.15.32l1.77,4.83A3.69,3.69,0,0,1,333.65,225.31Z"/><path class="cls-4" d="M328.13,226.14a1.68,1.68,0,0,1-.42,1.1,1.77,1.77,0,0,1-.9.64l-.74.28a1.79,1.79,0,0,1-2.32-1l-1.4-3.83a1.86,1.86,0,0,1,.12-1.55,2.23,2.23,0,0,1,1.19-1l.37-.15a2.09,2.09,0,0,1,2.38.64,2.39,2.39,0,0,1,.28.49L328,225.5A1.78,1.78,0,0,1,328.13,226.14Z"/><path class="cls-4" d="M343.06,216l-.16-4.23a1.75,1.75,0,0,0-.51-1.19h0c-.25-.19-5.57-4.31-6-4.6a7.33,7.33,0,0,0-5.87-.79l-1.13.4-5.5-1.41c-1.2,2.48-2.41,5-3.65,7.43l3.72,1.14c4.84,6.38,12.19.69,12.19.69l.72.54a1.48,1.48,0,0,1,.57,1.1l.06,2.22a3.43,3.43,0,0,0,3.61,3.29l.53,0a1.63,1.63,0,0,0,1.55-1.7Z"/><path class="cls-5" d="M289,197.66l-.22.07a11.35,11.35,0,0,1-14.45-7l-13.86-40a11.36,11.36,0,0,1,7-14.46l.22-.07a11.36,11.36,0,0,1,14.46,7l13.85,40A11.36,11.36,0,0,1,289,197.66Z"/><path class="cls-5" d="M325.8,202.35l-34.42-23.73a11.37,11.37,0,0,0-15.6,3.85l-.12.19a11.37,11.37,0,0,0,3.85,15.6l36.18,21.89C316.18,220.44,325.27,203.48,325.8,202.35Z"/><path class="cls-6" d="M269.42,394.42c-3.54.19-7.31.41-10.05-1v-2.32L270,389.74Z"/><path class="cls-6" d="M259.37,391.06c18.84,5,32.84,5.61,40.64,2.73l.25-3-40.58-3.41Z"/><path class="cls-7" d="M259.59,388.55c6,3.65,37.33,5.8,40.67,2.28,0-6.67-13.71-3.4-22.71-11.14C265.06,369,259.85,385.28,259.59,388.55Z"/><path class="cls-2" d="M276.29,334.2l-.27,0a13.23,13.23,0,0,1-14.71-11.56l-6.81-80.22L281,239.27l6.81,80.22A13.23,13.23,0,0,1,276.29,334.2Z"/><path class="cls-2" d="M275.51,309.86l.26,0a13.22,13.22,0,0,1,12.09,14.27l-4.73,57-26.62,7L261.23,322A13.24,13.24,0,0,1,275.51,309.86Z"/><path class="cls-8" d="M285.63,216.13c-.05,1-.09,2-.15,3-13.52,5.09-26.8,8.14-39.71,8.64A89.67,89.67,0,0,1,216,224.18l-.13-3.67-1.24-32.09L213,146.58c2.33-17.58,19.48-38.37,39.86-38.37h.72c15.76,0,28.38,14.32,27.75,31.54C280.25,169,287,183.55,285.63,216.13Z"/><path class="cls-9" d="M237,389.75l-.17,1.48-.27,2.22-.1,1-1.81.08c-3,.11-6,.09-8.25-1.13v-2.33l5.61-.69h0l2.09-.27Z"/><path class="cls-9" d="M267.3,390.83l-.26,3c-6.31,2.33-16.72,2.38-30.48-.34l-2.09-.46c-2.59-.54-5.26-1.2-8.07-1.94l.22-2.5c0-.09,0-.15,0-.26l.06-.85h.09l7.12.61Z"/><path class="cls-7" d="M267.3,390.83c-2.39,2.51-19,2.14-30.47.4-.92-.13-1.81-.29-2.64-.44s-1.48-.28-2.15-.43h0a20.09,20.09,0,0,1-5.39-1.81c0-.09,0-.15,0-.26s.09-.52.15-.85c0,0,0-.09,0-.13.61-2.77,2.59-7.9,6.21-10.15,2.81-1.74,6.62-1.72,11.53,2.53a21.69,21.69,0,0,0,3.05,2.15C256.37,386.85,267.3,384.87,267.3,390.83Z"/><path class="cls-5" d="M249.8,259.75a75.35,75.35,0,0,1-13.06-.37c-.83-.06-1.68-.17-2.53-.28a18.3,18.3,0,0,1-11.82-6.29c-9.57-11.12-7-32.65-7-32.65l.52.35c7.8,5.55,18.92,7,30.43,6.2a114.77,114.77,0,0,0,39.34-10.58S291.22,257.16,249.8,259.75Z"/><path class="cls-5" d="M254.89,322.25a0,0,0,0,1,0,0,13.23,13.23,0,0,1-11.58,11.91l-.26,0a13.27,13.27,0,0,1-14.71-11.54l-.07-.74v0l-5.88-69.11-.87-10.36L241,240.12l7.08-.85,1.74,20.48,5.07,59.73A11.68,11.68,0,0,1,254.89,322.25Z"/><path class="cls-5" d="M254.89,324.16l-4.72,57-2.55.67-14,3.68-6.84,1.79-3.28.87,4.72-66.24v0a13.2,13.2,0,0,1,11.69-12,12.23,12.23,0,0,1,2.57,0l.28,0a13.21,13.21,0,0,1,12.08,12.37,0,0,0,0,1,0,0A9.74,9.74,0,0,1,254.89,324.16Z"/><polygon class="cls-5" points="274.31 161.74 243.68 119.79 271.22 121.08 274.31 161.74"/><path class="cls-4" d="M279.27,91.83l-.17-.07a3.6,3.6,0,0,0-3.89,1L274.06,107a2.55,2.55,0,0,0,.39.24c2.41,1.24,5.45-1.22,6.78-5.49S281.68,93.07,279.27,91.83Z"/><path class="cls-19" d="M279,96.81c.33-.88,2-3.62,2.1-4.78a24,24,0,0,0,.05-5.7c-1.25-7.17-4.72-8.09-6.24-7.85.4,1.41,3.16,3.79,2.44,5A3.56,3.56,0,0,1,275.58,85a1.83,1.83,0,0,0-.85,2.1,52.29,52.29,0,0,1,.45,18.38c.8.87,2.12.32,2.72-.78a8.4,8.4,0,0,0,.68-3.88A11.31,11.31,0,0,1,279,96.81Z"/><path class="cls-4" d="M276.72,103a20.3,20.3,0,0,1,1-6,24.94,24.94,0,0,0,1.18-7.41c0-11.94-9.49-18.54-21.21-18.54s-21.2,6.6-21.2,18.54a25.85,25.85,0,0,0,2.19,10.12c0,.27-.07.54-.1.8-.44,5.58,2.33,15.16,5.7,19.72s5.31,2.28,10.22,5.22c3.46,2.06,9.88,1.89,12.36-.69s4.6-2.2,6.21-4.87C275.55,115.69,276.72,110.06,276.72,103Z"/><path class="cls-19" d="M238,96.81c-.43-.88-2.58-3.62-2.71-4.78a56.08,56.08,0,0,1-.07-5.7c0-6.67,2.26-7.37,4.24-7.14a4.37,4.37,0,0,0,3,5.76,1.68,1.68,0,0,1,1.09,2.1,41,41,0,0,0-.58,18.38c-1,.87-2.73.32-3.5-.78a6.69,6.69,0,0,1-.88-3.88A9.11,9.11,0,0,0,238,96.81Z"/><path class="cls-4" d="M233.55,92.3l.19-.07a4.53,4.53,0,0,1,4.4,1.06l1.6,14.38a3.62,3.62,0,0,1-.43.24c-2.7,1.19-6.17-1.34-7.76-5.65S230.86,93.49,233.55,92.3Z"/><path class="cls-11" d="M246.86,225.56c-.2.37-.39.76-.57,1.15s-.34.67-.52,1A94.78,94.78,0,0,0,241,240.12a121,121,0,0,0-4.24,19.26c-2.27,16.52-1.53,34.5,3.22,50.52a83.24,83.24,0,0,0,3.18,9.08c-2.7,3.27-4.94,8.16-6.64,14.35-3.07,11.18-4.38,26.53-3.46,43.83.15,2.75.35,5.53.63,8.36,0,.83.13,1.68.24,2.53,0,.67.13,1.35.22,2,0,.22,0,.46.06.7.09.72.18,1.46.28,2.2.05.5.11,1,.18,1.52-3,.11-6,.09-8.25-1.13v-2.33l.22-2.5c0-.09,0-.15,0-.26l.06-.85h.09s0-.09,0-.13l-3.28.87,4.72-66.24v0l-5.88-69.11c-9.57-11.12-7-32.65-7-32.65l.52.35-1.24-32.09,18.55-41.7C231.8,175.25,234.15,203.88,246.86,225.56Z"/><path class="cls-12" d="M259.12,390.63,238,262.31a16.34,16.34,0,0,0-16.24-13.67H214.4a16.34,16.34,0,0,0-16.24,13.67L177.05,390.63l-7.25-1.17,21.11-128.32a23.64,23.64,0,0,1,23.49-19.77h7.37a23.64,23.64,0,0,1,23.49,19.77l21.11,128.32Z"/><path class="cls-1" d="M220.79,224.49l0,0a2.53,2.53,0,0,1,3.58,1A79.05,79.05,0,0,0,234.62,239a2.7,2.7,0,0,1-.06,3.7l0,0a2.51,2.51,0,0,1-3.68-.08,84.4,84.4,0,0,1-10.8-14.14A3,3,0,0,1,220.79,224.49Z"/><path class="cls-4" d="M223.7,229.65h0a2.4,2.4,0,0,1,2.94,1.7l5,18.76A2.39,2.39,0,0,1,230,253h0a2.39,2.39,0,0,1-2.93-1.7l-5-18.77A2.39,2.39,0,0,1,223.7,229.65Z"/><path class="cls-4" d="M219.54,233l.05,0a2.48,2.48,0,0,1,3.08,1.67l5,18.76a2.48,2.48,0,0,1-1.84,3h-.05a2.48,2.48,0,0,1-3.08-1.67l-5-18.76A2.47,2.47,0,0,1,219.54,233Z"/><path class="cls-4" d="M214.23,232.51l.05,0a2.43,2.43,0,0,1,3,1.7l5,18.76a2.43,2.43,0,0,1-1.75,3h-.05a2.43,2.43,0,0,1-3-1.69l-5-18.77A2.41,2.41,0,0,1,214.23,232.51Z"/><path class="cls-4" d="M210.44,235.46h0a2.14,2.14,0,0,1,2.61,1.51l3.22,12.53a2.13,2.13,0,0,1-1.51,2.61h0a2.14,2.14,0,0,1-2.61-1.52l-3.23-12.53A2.13,2.13,0,0,1,210.44,235.46Z"/><rect class="cls-13" x="208.44" y="216.59" width="12.37" height="12.84" transform="translate(-50.01 62.49) rotate(-14.86)"/><path class="cls-4" d="M212.43,243.18l0,0a2.11,2.11,0,0,0,1.51-2.6l.21.75a2.39,2.39,0,0,0,2.93,1.71l0,0a2.39,2.39,0,0,0,1.7-2.93l.19.7a2.39,2.39,0,0,0,2.93,1.7h0a2.39,2.39,0,0,0,1.7-2.93,2.4,2.4,0,0,0,2.94,1.7h0a2.41,2.41,0,0,0,1.71-2.94l-1.26-4.76-.23-.84-1.25-4.74a7.06,7.06,0,0,0-8.64-5l-4.57,1.21a7.06,7.06,0,0,0-5,8.64l1.25,4.73.23.85.87,3.3A2.14,2.14,0,0,0,212.43,243.18Z"/><rect class="cls-5" x="182.82" y="150.3" width="65.02" height="22.95" rx="11.36" transform="translate(-25.35 282.65) rotate(-63.58)"/><path class="cls-5" d="M204.85,230l19.36-7-7.87-43.26a11.36,11.36,0,0,0-13.32-9l-.22,0a11.36,11.36,0,0,0-9,13.32Z"/><rect class="cls-12" x="185.05" y="315.75" width="66.99" height="7.26"/><path class="cls-14" d="M179.89,394.89H167.27l1.45-6.74a3,3,0,0,1,2.92-2.34h4.55a3,3,0,0,1,3,2.62Z"/><path class="cls-14" d="M256.44,394.89h12.61l-1.45-6.74a3,3,0,0,0-2.91-2.34h-4.56a3,3,0,0,0-3,2.62Z"/><path class="cls-4" d="M222.63,199.64v0a2,2,0,0,0-2.24-2.1l-4.92.86c-4.42.48-3.44,3.38.43,3.3l4.79-.27C221.94,201.37,222.63,200.89,222.63,199.64Z"/><path class="cls-13" d="M222.75,207.07v0a2.12,2.12,0,0,0-2.08-2.43l-5.19.34c-4.62,0-3.93,3.11.08,3.46l5,.26C221.84,208.79,222.61,208.36,222.75,207.07Z"/><path class="cls-4" d="M223.23,203.82v0a2.12,2.12,0,0,0-2.09-2.42l-5.19.35c-4.62,0-3.93,3.13.09,3.47l5,.24C222.33,205.54,223.1,205.11,223.23,203.82Z"/><path class="cls-4" d="M221.56,210.29v0a1.8,1.8,0,0,0-1.77-2.06l-4.43.3c-3.94,0-3.35,2.66.08,2.95l4.25.21C220.79,211.76,221.45,211.4,221.56,210.29Z"/><rect class="cls-12" x="216.84" y="278.04" width="29.98" height="7.34"/><rect class="cls-12" x="228.93" y="355.13" width="30.43" height="7.34"/><path class="cls-15" d="M179.49,394.47c-3.74.2-7.71.43-10.59-1.09v-2.45l11.17-1.39Z"/><path class="cls-15" d="M168.9,390.93c19.85,5.28,26.29,5.74,34.51,2.71l.27-3.11-34.46-3.42Z"/><path class="cls-3" d="M169.12,388.28c6.27,3.86,31,6,34.55,2.24,0-3.55-8.28-3.37-17.77-11.53C172.74,367.66,170.41,377.75,169.12,388.28Z"/><path class="cls-1" d="M192.81,323.19,187,370.14l-.29,2.34-.81,6.5c-4.78,2.8-11.39,2.15-14.47-1l0,0,.14-7.24,0-2.43.85-46.27c3.88.49,5.52.87,9.38,1.16A47.52,47.52,0,0,0,192.81,323.19Z"/><path class="cls-8" d="M171.58,369.27l-.16,8.7c3.06,3.17,9.72,3.8,14.48,1l1-8.38A29.57,29.57,0,0,1,171.58,369.27Z"/><path class="cls-16" d="M187,370.14l-.29,2.34a27.83,27.83,0,0,1-4.28.31,29.62,29.62,0,0,1-10.88-2.06l0-2.43A26.86,26.86,0,0,0,187,370.14Z"/><path class="cls-9" d="M150.89,394.47c-3.74.2-7.71.43-10.6-1.09v-2.45l11.18-1.39Z"/><path class="cls-9" d="M140.29,390.93c19.86,5.28,26.3,5.74,34.52,2.71l.26-3.11-34.45-3.42Z"/><path class="cls-3" d="M140.52,388.28c6.27,3.86,31,6,34.55,2.24,0-3.55-8.28-3.37-17.77-11.53C144.14,367.66,141.81,377.75,140.52,388.28Z"/><path class="cls-1" d="M164.21,323.19l-5.81,46.95-.29,2.34-.81,6.5c-4.78,2.8-11.39,2.15-14.47-1l0,0,.13-7.24.05-2.43.85-46.27c3.88.49,5.52.87,9.38,1.16A47.52,47.52,0,0,0,164.21,323.19Z"/><path class="cls-8" d="M143,369.27l-.16,8.7c3.06,3.17,9.71,3.8,14.48,1l1-8.38A29.57,29.57,0,0,1,143,369.27Z"/><path class="cls-10" d="M158.4,370.14l-.29,2.34a27.87,27.87,0,0,1-4.29.31,29.7,29.7,0,0,1-10.88-2.06l.05-2.43A26.86,26.86,0,0,0,158.4,370.14Z"/><path class="cls-17" d="M206.09,248.36c-29.28,11.43-58.56,6.63-81.88-4.12L136,182.67c2.46-21.38,18.61-36.43,34.16-36.43h.55c12,0,16.43,5.12,22.86,15.72C200.72,173.68,193.6,212.93,206.09,248.36Z"/><path class="cls-18" d="M114.77,353.57a.42.42,0,0,0,.15,0,5.69,5.69,0,0,0,.65.24c2,.7,4,1.35,6,2,2.68.83,5.33,1.59,8,2.26,4.54,1.2,9.07,2.18,13.56,2.92,2.33.41,4.63.74,6.92,1a134.1,134.1,0,0,0,18.81,1c2.19,0,4.39-.13,6.59-.31s4.38-.37,6.55-.65a120,120,0,0,0,17.48-3.51c2.46-.67,4.9-1.43,7.32-2.26s4.85-1.79,7.24-2.79c1.42-.58,2.83-1.22,4.25-1.87.37-.15.72-.3,1.07-.48L199.75,244l-16.2.48-22.31.67-32.54,1,0,.11L115,352.11Z"/><path class="cls-18" d="M167.7,249.18c9.38-.37,19.68-1.94,28.45-5.64,2.24-.95,4.39-2,6.52-3.11-8.82-33.17-3.35-67.62-9.78-78.47-6.28-10.6-10.58-15.72-22.31-15.72h-.53c-15.16,0-30.91,15-33.31,36.43l-10.23,54.61C138.41,244.9,154.26,249.72,167.7,249.18Z"/><path class="cls-2" d="M185.87,157.78a148.16,148.16,0,0,1,2.35,31.75c-.58,21.71,1.24,42.09,8.39,62a95.56,95.56,0,0,0,9.48-3.14c-12.49-35.43-5.37-74.68-12.49-86.4-3.66-6-6.68-10.26-10.8-12.81A29.85,29.85,0,0,1,185.87,157.78Z"/><path class="cls-2" d="M124.21,244.25c1.46.68,3,1.33,4.47,1.94a115.43,115.43,0,0,0,27.88,7.71c1.85.24,3.7.45,5.57.63-.15-1.13-.3-2.29-.41-3.42-.22-2-.37-4-.48-6-.72-13.36.68-27.08,1.68-40.31.17-2.16.32-4.29.45-6.42.68-10.8,4-39.84-7.88-47.74-9.81,6-17.78,17.53-19.46,32l-6.94,36.16Z"/><path class="cls-19" d="M169.18,120.56C162,122,155.27,118.13,154.09,112s3.64-12.17,10.79-13.57,13.91,2.43,15.1,8.53S176.33,119.16,169.18,120.56Z"/><path class="cls-4" d="M192.69,130.13l-.13-.06a2.5,2.5,0,0,0-3,.8l-.63,12.72a3.55,3.55,0,0,0,.31.23c1.91,1.14,4.25-1,5.21-4.77S194.61,131.28,192.69,130.13Z"/><path class="cls-4" d="M192.3,130.12a24.56,24.56,0,0,1-1.15,7.41,1.94,1.94,0,0,1-.05.2c-.82,3.33-1.3,11.6-3.31,14.91-1.76,2.91-6.21,4.55-8.93,6.45-3.91,2.71-8.27,1.79-12.49-.28-4.49-2.22-7-2.6-9.7-6.67a25.68,25.68,0,0,1-3.12-7.89c-.17-.65-.32-1.29-.47-1.94-.3-1.27-.55-2.51-.82-3.71a23,23,0,0,1-1.68-8.67c0-12.25,9.52-22.2,21.28-22.2S192.3,117.86,192.3,130.12Z"/><path class="cls-20" d="M192.26,131.36c3.24-16.68-9.83-28.62-20.85-24C170,120.75,186.09,130.86,192.26,131.36Z"/><path class="cls-10" d="M152.81,131.07l-3.7.34c-4-16.67,9.78-28.6,26.43-25C176.78,119.55,163.09,134.25,152.81,131.07Z"/><path class="cls-4" d="M148.71,130.18a.85.85,0,0,1,.17-.06,4,4,0,0,1,3.93.95l1.44,12.86a2.93,2.93,0,0,1-.39.21c-2.41,1.07-5.52-1.2-6.94-5S146.3,131.24,148.71,130.18Z"/><path class="cls-21" d="M148,293.58,143.08,361l-.14,1.82-2.24-.2c-3.54-.68-7.27-1.55-11.42-2.61l.25-1.93c-2.65-.67-5.29-1.43-8-2.26l15.16-59.56.38-.09Z"/><path class="cls-21" d="M218.25,351.64c-1.41.65-2.83,1.27-4.24,1.86-2.4,1-4.82,1.93-7.25,2.78L197,289.52l.06.23Z"/><path class="cls-21" d="M199.45,358.55a120.79,120.79,0,0,1-17.5,3.52q-3.25.4-6.55.65c-2.19.15-4.39.24-6.59.29l.09,1.75a131,131,0,0,1-19.4-.74l.51-2,15.1-59.29,1.23,5.83v.07l.07.27,9,51.93,4.46-33.47,3-22.38,8.09,3.92Z"/><path class="cls-18" d="M168.9,364.76a131,131,0,0,1-19.4-.74c-2.88-.36-5.77-.81-8.8-1.41-3.54-.68-7.27-1.55-11.42-2.61l.25-1.93,7.58-61.91,1.12-9.06,27.35,4.49.76,17v.07l2.47,54.4Z"/><path class="cls-18" d="M214.73,354.29c-1.44.74-2.9,1.44-4.42,2.09h0A78,78,0,0,1,200,360a84.44,84.44,0,0,1-17.92,2.85l-.16-2.7-2.13-34.72-2.08-34.1,17.56-10.2,1.71,6.48.06.22L214,351.63Z"/><path class="cls-11" d="M114.77,358.79c.26-1.63.52-3.28.8-4.94,6.4-38.74,16.74-84.39,35.64-95.47a31.93,31.93,0,0,1,10.51-7.27c5.64-2.46,12.41-3.94,21.83-6.68,1.31-.37,2.68-.79,4.09-1.22-10.68-12.34-19-25.14-24.72-38.42a114.45,114.45,0,0,1-8.67-31.56l-25.16,45.6-4.88,25.42c1.46.68,3,1.33,4.47,1.94L115,352.11l0,1.5Z"/><path class="cls-22" d="M177.7,237.63l0,0c.67-1.18,3.79-.71,5,.06a58.64,58.64,0,0,0,12.63,6.16c1.24.46,2.46.9,2.27,2.22-.11.81-1.61,2.06-4.06,1.43a51.22,51.22,0,0,1-14.75-6.17A2.83,2.83,0,0,1,177.7,237.63Z"/><rect class="cls-19" x="157.19" y="315.75" width="66.99" height="7.26"/><path class="cls-10" d="M231.26,390.63,210.15,262.31a16.34,16.34,0,0,0-16.24-13.67h-7.37a16.34,16.34,0,0,0-16.24,13.67L149.19,390.63l-7.25-1.17,21.11-128.32a23.64,23.64,0,0,1,23.49-19.77h7.37a23.64,23.64,0,0,1,23.49,19.77l21.11,128.32Z"/><path class="cls-9" d="M152,394.89H139.41l1.45-6.74a3,3,0,0,1,2.91-2.34h4.56a3,3,0,0,1,3,2.62Z"/><path class="cls-9" d="M228.57,394.89h12.62l-1.45-6.74a3,3,0,0,0-2.91-2.34h-4.56a3,3,0,0,0-3,2.62Z"/><path class="cls-1" d="M182.5,239.68l0,0a2.24,2.24,0,0,1,3.13.46l6,9.42c2.91,4.12-.23,6.16-3,2.24l-6.82-8.8A2.48,2.48,0,0,1,182.5,239.68Z"/><path class="cls-1" d="M179.44,244.12l0,0a2.3,2.3,0,0,1,3.26.07l7.15,8.94c2.6,3.1-.42,5.71-2.72,3l-8-8.72A2.31,2.31,0,0,1,179.44,244.12Z"/><path class="cls-1" d="M175.13,246.24l0,0a2.25,2.25,0,0,1,3.19.14l7.77,8.6a2.1,2.1,0,0,1,.13,3.05,2,2,0,0,1-2.82-.43l-8.51-8.14A2.25,2.25,0,0,1,175.13,246.24Z"/><path class="cls-1" d="M173.24,250.29l0,0a2,2,0,0,1,2.8.15l5.62,5.42c.74.81,1.6,2.39.78,3.12,0,0-1.45,1.26-3.1-.52l-5.59-4.95C173,252.68,172.42,251,173.24,250.29Z"/><path class="cls-4" d="M178.34,253c2.32,2.34,4.93-.18,3.85-2.48a2.21,2.21,0,0,0,3.61-2.45c1.79,1.88,4.85-.77,3.45-2.8l-3-3.7-.54-.6-1.43-2c-2.43-2.7-8.21-4.3-10.91-1.87L170.13,240c-2.7,2.43-1.12,8.46,1.31,11.16l5,4.83C177.21,256.85,180.35,255.54,178.34,253Z"/><path class="cls-2" d="M147.66,216.07h-.19a9.19,9.19,0,0,1-9.05-9.34l.56-34.24a9.2,9.2,0,0,1,9.35-9h.18a9.19,9.19,0,0,1,9.05,9.34L157,207A9.19,9.19,0,0,1,147.66,216.07Z"/><path class="cls-2" d="M168.08,244.52l9.81-8.57L155,202.58a9.2,9.2,0,0,0-12.86-1.93l-.15.11a9.19,9.19,0,0,0-1.93,12.86Z"/></g></g></svg>