<svg height="512" viewBox="0 0 128 128" width="512" xmlns="http://www.w3.org/2000/svg"><g><g><path d="m73.25 113.333h-18.5l4.75-27.875h9z" fill="#67b5bc"/><path d="m6.5 6.5h115v84.529h-115z" fill="#79d5dd"/><path d="m30.735-5.735h66.529v103h-66.529z" fill="#f0f0fb" transform="matrix(0 1 -1 0 109.765 -18.235)"/><path d="m71.9 109.5h-15.8a12 12 0 0 0 -12 12h39.8a12 12 0 0 0 -12-12z" fill="#79d5dd"/><g fill="#d85134"><path d="m34 46.625h6v21.542h-6z"/><path d="m47.5 42.781h6v25.385h-6z"/><path d="m61 38.938h6v29.229h-6z"/><path d="m74.5 35.094h6v33.073h-6z"/><path d="m88 31.25h6v36.917h-6z"/></g></g><g fill="#0f1336"><g><path d="m121.5 4.75h-115a1.751 1.751 0 0 0 -1.75 1.75v84.529a1.75 1.75 0 0 0 1.75 1.75h21.625a1.75 1.75 0 0 0 0-3.5h-19.875v-81.029h111.5v81.029h-81.625a1.75 1.75 0 0 0 0 3.5h18.352l-2.577 15.164a13.76 13.76 0 0 0 -11.554 13.557 1.751 1.751 0 0 0 1.75 1.75h39.804a1.751 1.751 0 0 0 1.75-1.75 13.76 13.76 0 0 0 -11.549-13.557l-2.578-15.164h49.977a1.75 1.75 0 0 0 1.75-1.75v-84.529a1.751 1.751 0 0 0 -1.75-1.75zm-39.5 115h-36a10.267 10.267 0 0 1 10.1-8.5h15.8a10.267 10.267 0 0 1 10.1 8.5zm-11.482-12h-13.04l2.549-14.971h7.946z"/><path d="m117.25 12.5a1.751 1.751 0 0 0 -1.75-1.75h-103a1.751 1.751 0 0 0 -1.75 1.75v66.529a1.75 1.75 0 0 0 1.75 1.75h103a1.75 1.75 0 0 0 1.75-1.75v-40.4a1.75 1.75 0 0 0 -3.5 0v38.65h-99.5v-63.029h99.5v5.375a1.75 1.75 0 0 0 3.5 0z"/><path d="m115.5 25.5a1.751 1.751 0 0 0 -1.75 1.75v4a1.75 1.75 0 0 0 3.5 0v-4a1.751 1.751 0 0 0 -1.75-1.75z"/></g><path d="m37 20.25a1.75 1.75 0 0 0 0-3.5h-11.167a1.75 1.75 0 0 0 0 3.5z"/><path d="m26.833 69.917h74.334a1.75 1.75 0 0 0 0-3.5h-5.417v-35.167a1.751 1.751 0 0 0 -1.75-1.75h-6a1.751 1.751 0 0 0 -1.75 1.75v35.167h-4v-31.323a1.75 1.75 0 0 0 -1.75-1.75h-6a1.75 1.75 0 0 0 -1.75 1.75v31.323h-4v-27.479a1.75 1.75 0 0 0 -1.75-1.75h-6a1.75 1.75 0 0 0 -1.75 1.75v6.827a1.75 1.75 0 0 0 3.5 0v-5.077h2.5v25.729h-2.5v-12.084a1.75 1.75 0 0 0 -3.5 0v12.084h-4v-23.636a1.751 1.751 0 0 0 -1.75-1.75h-6a1.751 1.751 0 0 0 -1.75 1.75v23.636h-4v-19.792a1.751 1.751 0 0 0 -1.75-1.75h-6a1.751 1.751 0 0 0 -1.75 1.75v19.792h-5.417a1.75 1.75 0 0 0 0 3.5zm62.917-36.917h2.5v33.417h-2.5zm-13.5 3.844h2.5v29.573h-2.5zm-27 7.687h2.5v21.886h-2.5zm-13.5 3.844h2.5v18.042h-2.5z"/></g></g></svg>